<?xml version="1.0" encoding="UTF-8" standalone="no"?>
<!DOCTYPE svg PUBLIC "-//W3C//DTD SVG 1.1//EN" "http://www.w3.org/Graphics/SVG/1.1/DTD/svg11.dtd">
<svg width="100%" height="100%" viewBox="0 0 1080 1080" version="1.1" xmlns="http://www.w3.org/2000/svg" xmlns:xlink="http://www.w3.org/1999/xlink" xml:space="preserve" xmlns:serif="http://www.serif.com/" style="fill-rule:evenodd;clip-rule:evenodd;">
    <g id="Airspeed">
        <g id="Background">
            <path d="M0,540c0,298.034 241.966,540 540,540c298.034,0 540,-241.966 540,-540c-0,-298.034 -241.966,-540 -540,-540c-298.034,0 -540,241.966 -540,540Z" style="fill:url(#_Radial1);"/>
            <path d="M44.333,533.338c-0,263.004 223.007,476.531 497.689,476.531c274.683,-0 497.69,-213.527 497.69,-476.531c0,-263.005 -223.007,-476.531 -497.69,-476.531c-274.682,0 -497.689,213.526 -497.689,476.531Z" style="fill:url(#_Radial2);"/>
            <path d="M534.359,268.598l76.661,-184.672l186.373,77.367l-79.187,190.756l192.138,-79.411l77.08,186.497l-186.207,76.96l184.894,76.753l-77.37,186.378l-187.197,-77.709l79.405,192.131l-186.503,77.079l-80.505,-194.792l-79.271,190.96l-186.373,-77.367l76.755,-184.898l-186.203,76.958l-77.08,-186.496l192.122,-79.405l-190.753,-79.186l77.369,-186.378l188.455,78.231l-76.958,-186.208l186.504,-77.08l75.851,183.532Z" style="fill:rgb(26,26,26);"/>
            <path d="M635.056,300.16l136.156,-136.152l136.617,136.621l-140.274,140.27l199.187,-0l-0,194.157l-191.157,0l134.08,134.079l-136.605,136.606l-138.004,-138.002l0,203.048l-194.157,-0l-0,-203.242l-138.2,138.196l-136.617,-136.62l134.068,-134.065l-190.937,0l0,-194.157l199.001,-0l-140.286,-140.285l136.606,-136.606l136.365,136.364l-0,-191.159l194.157,0l0,190.947Z"/>
            <path d="M125.292,539.782c0,226.954 184.259,411.213 411.213,411.213c226.955,-0 411.213,-184.259 411.213,-411.213c0,-226.955 -184.258,-411.213 -411.213,-411.213c-226.954,-0 -411.213,184.258 -411.213,411.213Z" style="fill:url(#_Radial3);"/>
        </g>
        <g id="Plate">
            <g>
                <g>
                    <path d="M434.744,217.134l-6.684,18.125l13.393,0l-6.709,-18.125m-2.781,-4.855l5.587,0l13.881,36.422l-5.123,0l-3.318,-9.343l-16.418,-0l-3.318,9.343l-5.196,0l13.905,-36.422" style="fill:white;fill-rule:nonzero;"/>
                    <path d="M456.727,212.263l4.928,-0l0,36.421l-4.928,0l0,-36.421" style="fill:white;fill-rule:nonzero;"/>
                    <path d="M488.744,231.623c1.057,0.357 2.082,1.122 3.074,2.293c1.008,1.171 2.017,2.781 3.025,4.83l5.001,9.953l-5.294,0l-4.659,-9.343c-1.204,-2.439 -2.375,-4.058 -3.513,-4.854c-1.122,-0.797 -2.659,-1.196 -4.611,-1.196l-5.367,0l0,15.394l-4.927,-0l-0,-36.422l11.124,0c4.163,0 7.27,0.87 9.319,2.61c2.049,1.74 3.073,4.367 3.074,7.88c-0.001,2.293 -0.537,4.196 -1.611,5.708c-1.057,1.513 -2.602,2.562 -4.635,3.147m-12.343,-15.295l-0,12.929l6.196,0c2.374,0 4.163,-0.544 5.367,-1.634c1.22,-1.106 1.83,-2.724 1.83,-4.855c-0,-2.13 -0.61,-3.732 -1.83,-4.806c-1.203,-1.089 -2.992,-1.634 -5.367,-1.634l-6.196,0" style="fill:white;fill-rule:nonzero;"/>
                    <path d="M528.047,213.47l-0,4.806c-1.87,-0.895 -3.635,-1.561 -5.294,-2c-1.659,-0.44 -3.261,-0.659 -4.806,-0.659c-2.683,-0 -4.757,0.52 -6.22,1.561c-1.448,1.041 -2.172,2.521 -2.172,4.44c0,1.61 0.48,2.83 1.44,3.659c0.976,0.814 2.813,1.472 5.513,1.976l2.976,0.61c3.676,0.7 6.384,1.936 8.124,3.708c1.756,1.757 2.634,4.115 2.634,7.075c0,3.529 -1.187,6.204 -3.561,8.026c-2.358,1.821 -5.822,2.732 -10.392,2.732c-1.724,-0 -3.562,-0.195 -5.514,-0.586c-1.935,-0.39 -3.944,-0.967 -6.025,-1.732l-0,-5.074c2,1.122 3.96,1.968 5.879,2.537c1.919,0.569 3.805,0.854 5.66,0.854c2.813,-0 4.984,-0.553 6.513,-1.659c1.529,-1.106 2.293,-2.683 2.293,-4.733c0,-1.789 -0.553,-3.187 -1.659,-4.195c-1.089,-1.009 -2.886,-1.765 -5.391,-2.269l-3,-0.586c-3.676,-0.732 -6.335,-1.878 -7.978,-3.439c-1.642,-1.562 -2.463,-3.733 -2.463,-6.514c-0,-3.22 1.13,-5.757 3.39,-7.611c2.277,-1.854 5.408,-2.781 9.393,-2.781c1.707,-0 3.448,0.154 5.22,0.463c1.773,0.309 3.586,0.773 5.44,1.391" style="fill:white;fill-rule:nonzero;"/>
                    <path d="M542.827,216.343l-0,13.685l6.196,0c2.294,0 4.066,-0.593 5.319,-1.78c1.252,-1.188 1.878,-2.879 1.878,-5.075c0,-2.179 -0.626,-3.862 -1.878,-5.05c-1.253,-1.187 -3.025,-1.78 -5.319,-1.78l-6.196,-0m-4.928,-4.05l11.124,-0c4.082,0 7.164,0.927 9.246,2.781c2.098,1.838 3.147,4.537 3.147,8.099c0,3.594 -1.049,6.31 -3.147,8.148c-2.082,1.838 -5.163,2.757 -9.246,2.757l-6.196,-0l-0,14.637l-4.928,-0l0,-36.422" style="fill:white;fill-rule:nonzero;"/>
                    <path d="M568.057,212.263l23.029,-0l0,4.147l-18.101,-0l-0,10.782l17.345,0l-0,4.147l-17.345,0l-0,13.198l18.54,0l-0,4.147l-23.468,0l-0,-36.421" style="fill:white;fill-rule:nonzero;"/>
                    <path d="M599.699,212.263l23.029,-0l0,4.147l-18.101,-0l-0,10.782l17.345,0l-0,4.147l-17.345,0l-0,13.198l18.54,0l-0,4.147l-23.468,0l-0,-36.421" style="fill:white;fill-rule:nonzero;"/>
                    <path d="M636.213,216.343l-0,28.322l5.952,0c5.025,0 8.701,-1.138 11.026,-3.415c2.342,-2.277 3.513,-5.871 3.513,-10.782c0,-4.879 -1.171,-8.449 -3.513,-10.71c-2.325,-2.277 -6.001,-3.415 -11.026,-3.415l-5.952,-0m-4.928,-4.05l10.124,0c7.058,0 12.237,1.472 15.539,4.416c3.301,2.927 4.952,7.514 4.952,13.759c0,6.277 -1.659,10.888 -4.976,13.832c-3.318,2.944 -8.49,4.416 -15.516,4.416l-10.124,-0l0,-36.422" style="fill:white;fill-rule:nonzero;"/>
                </g>
                <g>
                    <path d="M457.947,628.643l4.928,-0l0,15.393l16.345,-15.393l6.342,-0l-18.076,16.978l19.37,19.443l-6.49,0l-17.491,-17.54l0,17.54l-4.928,0l0,-36.421" style="fill:white;fill-rule:nonzero;"/>
                    <path d="M490.755,628.643l6.636,-0l16.149,30.469l0,-30.469l4.781,-0l0,36.421l-6.635,0l-16.15,-30.469l0,30.469l-4.781,0l0,-36.421" style="fill:white;fill-rule:nonzero;"/>
                    <path d="M542.923,631.973c-3.578,0 -6.424,1.334 -8.539,4.001c-2.098,2.667 -3.147,6.302 -3.147,10.905c0,4.586 1.049,8.213 3.147,10.88c2.115,2.667 4.961,4.001 8.539,4.001c3.578,-0 6.408,-1.334 8.489,-4.001c2.098,-2.667 3.147,-6.294 3.147,-10.88c0,-4.603 -1.049,-8.238 -3.147,-10.905c-2.081,-2.667 -4.911,-4.001 -8.489,-4.001m-0,-4.001c5.107,0.001 9.188,1.716 12.246,5.148c3.057,3.415 4.586,8.001 4.586,13.759c0,5.741 -1.528,10.327 -4.586,13.758c-3.058,3.416 -7.139,5.124 -12.246,5.124c-5.123,-0 -9.221,-1.708 -12.295,-5.124c-3.058,-3.415 -4.587,-8.001 -4.587,-13.758c0,-5.758 1.529,-10.344 4.587,-13.759c3.073,-3.432 7.172,-5.148 12.295,-5.148" style="fill:white;fill-rule:nonzero;"/>
                    <path d="M562.408,628.643l30.811,-0l-0,4.147l-12.93,-0l0,32.275l-4.952,-0l0,-32.275l-12.929,-0l-0,-4.147" style="fill:white;fill-rule:nonzero;"/>
                    <path d="M619.821,629.808l0,4.806c-1.87,-0.894 -3.635,-1.561 -5.294,-2c-1.659,-0.439 -3.26,-0.659 -4.805,-0.659c-2.684,0 -4.758,0.521 -6.221,1.561c-1.448,1.041 -2.171,2.521 -2.171,4.44c-0,1.61 0.48,2.83 1.439,3.659c0.976,0.814 2.814,1.472 5.513,1.976l2.976,0.61c3.676,0.7 6.384,1.936 8.124,3.708c1.757,1.757 2.635,4.115 2.635,7.075c-0,3.529 -1.187,6.204 -3.562,8.026c-2.358,1.821 -5.822,2.732 -10.392,2.732c-1.724,-0 -3.562,-0.195 -5.513,-0.585c-1.936,-0.391 -3.944,-0.968 -6.026,-1.733l-0,-5.074c2,1.122 3.96,1.968 5.879,2.537c1.919,0.569 3.806,0.854 5.66,0.854c2.813,0 4.985,-0.553 6.514,-1.659c1.528,-1.106 2.293,-2.683 2.293,-4.732c-0,-1.789 -0.553,-3.188 -1.659,-4.196c-1.09,-1.009 -2.887,-1.765 -5.391,-2.269l-3.001,-0.586c-3.676,-0.731 -6.335,-1.878 -7.977,-3.439c-1.643,-1.562 -2.464,-3.733 -2.464,-6.514c-0,-3.22 1.13,-5.757 3.391,-7.611c2.277,-1.854 5.407,-2.781 9.392,-2.781c1.708,0 3.448,0.155 5.221,0.464c1.772,0.309 3.586,0.772 5.44,1.39" style="fill:white;fill-rule:nonzero;"/>
                </g>
            </g>
            <g>
                <path d="M644.502,327.182l-12.011,17.788l12.011,0l-0,-17.788m-1.822,-9.022l12.182,-0l-0,26.81l6.062,0l-0,7.941l-6.062,-0l-0,7.741l-10.36,0l-0,-7.741l-18.841,-0l-0,-9.393l17.019,-25.358" style="fill:white;fill-rule:nonzero;"/>
                <path d="M690.383,339.339c-0,-5.312 -0.503,-9.05 -1.509,-11.214c-0.986,-2.182 -2.656,-3.273 -5.009,-3.273c-2.352,0 -4.032,1.091 -5.037,3.273c-1.006,2.163 -1.509,5.901 -1.509,11.214c0,5.37 0.503,9.155 1.509,11.356c1.005,2.201 2.684,3.301 5.037,3.301c2.334,0 4.004,-1.1 5.009,-3.301c1.006,-2.201 1.509,-5.986 1.509,-11.356m10.957,0.086c0,7.039 -1.518,12.475 -4.554,16.308c-3.036,3.813 -7.343,5.72 -12.921,5.72c-5.597,0 -9.914,-1.907 -12.95,-5.72c-3.036,-3.833 -4.554,-9.269 -4.554,-16.308c0,-7.059 1.518,-12.495 4.554,-16.309c3.036,-3.832 7.353,-5.748 12.95,-5.749c5.578,0 9.885,1.917 12.921,5.749c3.036,3.814 4.554,9.25 4.554,16.309" style="fill:white;fill-rule:nonzero;"/>
                <path d="M734.182,459.287c-1.916,0 -3.358,0.627 -4.326,1.879c-0.949,1.233 -1.423,3.093 -1.423,5.578c-0,2.486 0.474,4.354 1.423,5.607c0.968,1.233 2.41,1.85 4.326,1.85c1.935,-0 3.377,-0.617 4.326,-1.85c0.968,-1.252 1.452,-3.121 1.452,-5.607c-0,-2.486 -0.484,-4.345 -1.452,-5.578c-0.948,-1.252 -2.39,-1.879 -4.326,-1.879m13.547,-20.406l0,7.855c-1.802,-0.854 -3.5,-1.48 -5.094,-1.878c-1.594,-0.418 -3.15,-0.627 -4.668,-0.627c-3.263,0 -5.805,0.911 -7.627,2.733c-1.821,1.802 -2.884,4.487 -3.188,8.054c1.253,-0.93 2.609,-1.622 4.07,-2.078c1.461,-0.474 3.055,-0.711 4.782,-0.711c4.345,0 7.845,1.271 10.502,3.814c2.675,2.542 4.013,5.872 4.013,9.989c-0,4.554 -1.49,8.207 -4.468,10.958c-2.979,2.732 -6.973,4.098 -11.982,4.098c-5.522,0 -9.8,-1.859 -12.836,-5.578c-3.017,-3.738 -4.525,-9.032 -4.525,-15.881c-0,-7.02 1.764,-12.532 5.293,-16.536c3.549,-4.022 8.406,-6.034 14.572,-6.034c1.955,0.001 3.852,0.152 5.693,0.456c1.84,0.303 3.662,0.759 5.464,1.366" style="fill:white;fill-rule:nonzero;"/>
                <path d="M780.438,458.954c-0,-5.312 -0.503,-9.05 -1.509,-11.213c-0.986,-2.182 -2.656,-3.273 -5.009,-3.273c-2.353,-0 -4.032,1.091 -5.037,3.273c-1.006,2.163 -1.509,5.9 -1.509,11.213c0,5.37 0.503,9.155 1.509,11.356c1.005,2.201 2.684,3.302 5.037,3.302c2.334,-0 4.004,-1.101 5.009,-3.302c1.006,-2.201 1.509,-5.986 1.509,-11.356m10.957,0.086c-0,7.039 -1.518,12.475 -4.554,16.308c-3.036,3.814 -7.343,5.72 -12.921,5.72c-5.597,0 -9.914,-1.907 -12.95,-5.72c-3.036,-3.833 -4.554,-9.269 -4.554,-16.308c0,-7.059 1.518,-12.495 4.554,-16.308c3.036,-3.833 7.353,-5.749 12.95,-5.75c5.578,0 9.885,1.917 12.921,5.75c3.036,3.813 4.554,9.249 4.554,16.308" style="fill:white;fill-rule:nonzero;"/>
                <path d="M738.554,621.036c-2.05,0 -3.624,0.56 -4.725,1.68c-1.101,1.119 -1.651,2.722 -1.651,4.81c0,2.087 0.55,3.69 1.651,4.81c1.1,1.1 2.675,1.65 4.725,1.65c2.03,0 3.586,-0.55 4.667,-1.65c1.082,-1.12 1.623,-2.723 1.623,-4.81c-0,-2.107 -0.541,-3.71 -1.623,-4.81c-1.081,-1.12 -2.637,-1.68 -4.667,-1.68m-7.998,-3.614c-2.58,-0.778 -4.525,-1.973 -5.834,-3.586c-1.31,-1.613 -1.964,-3.624 -1.964,-6.034c-0,-3.586 1.337,-6.318 4.013,-8.197c2.675,-1.878 6.602,-2.817 11.783,-2.817c5.141,-0 9.05,0.939 11.725,2.817c2.676,1.86 4.013,4.592 4.013,8.197c0,2.41 -0.664,4.421 -1.992,6.034c-1.309,1.613 -3.254,2.808 -5.834,3.586c2.884,0.797 5.056,2.096 6.517,3.899c1.48,1.784 2.22,4.041 2.22,6.774c-0,4.212 -1.404,7.4 -4.212,9.563c-2.789,2.144 -6.935,3.216 -12.438,3.216c-5.521,-0 -9.695,-1.072 -12.522,-3.216c-2.808,-2.163 -4.212,-5.351 -4.212,-9.563c-0,-2.732 0.73,-4.99 2.191,-6.774c1.48,-1.803 3.662,-3.102 6.546,-3.899m2.562,-8.51c-0,1.689 0.465,2.988 1.394,3.899c0.949,0.911 2.296,1.366 4.042,1.366c1.707,0 3.026,-0.455 3.956,-1.366c0.929,-0.911 1.394,-2.21 1.394,-3.899c0,-1.689 -0.465,-2.979 -1.394,-3.871c-0.93,-0.911 -2.249,-1.366 -3.956,-1.366c-1.746,0 -3.093,0.455 -4.042,1.366c-0.929,0.911 -1.394,2.201 -1.394,3.871" style="fill:white;fill-rule:nonzero;"/>
                <path d="M785.6,618.747c0,-5.313 -0.503,-9.051 -1.508,-11.214c-0.987,-2.182 -2.656,-3.273 -5.009,-3.273c-2.353,-0 -4.032,1.091 -5.038,3.273c-1.005,2.163 -1.508,5.901 -1.508,11.214c-0,5.369 0.503,9.154 1.508,11.355c1.006,2.201 2.685,3.302 5.038,3.302c2.334,-0 4.003,-1.101 5.009,-3.302c1.005,-2.201 1.508,-5.986 1.508,-11.355m10.958,0.085c-0,7.039 -1.518,12.475 -4.554,16.308c-3.036,3.814 -7.343,5.721 -12.921,5.721c-5.598,-0 -9.914,-1.907 -12.95,-5.721c-3.036,-3.833 -4.554,-9.269 -4.554,-16.308c-0,-7.058 1.518,-12.495 4.554,-16.308c3.035,-3.833 7.352,-5.749 12.95,-5.75c5.578,0 9.885,1.917 12.921,5.75c3.036,3.814 4.554,9.25 4.554,16.308" style="fill:white;fill-rule:nonzero;"/>
                <path d="M605.199,750.394l9.677,-0l-0,-27.465l-9.933,2.049l-0,-7.456l9.876,-2.05l10.417,0l-0,34.922l9.676,0l0,7.571l-29.713,-0l0,-7.571" style="fill:white;fill-rule:nonzero;"/>
                <path d="M665.694,736.655c-0,-5.313 -0.503,-9.051 -1.509,-11.214c-0.986,-2.182 -2.656,-3.273 -5.009,-3.273c-2.352,-0 -4.032,1.091 -5.037,3.273c-1.006,2.163 -1.509,5.901 -1.509,11.214c0,5.369 0.503,9.155 1.509,11.355c1.005,2.201 2.684,3.302 5.037,3.302c2.334,-0 4.004,-1.101 5.009,-3.302c1.006,-2.201 1.509,-5.986 1.509,-11.355m10.957,0.085c0,7.04 -1.518,12.475 -4.554,16.308c-3.036,3.814 -7.343,5.721 -12.921,5.721c-5.597,-0 -9.914,-1.907 -12.95,-5.721c-3.036,-3.833 -4.554,-9.268 -4.554,-16.308c0,-7.058 1.518,-12.494 4.554,-16.308c3.036,-3.833 7.353,-5.749 12.95,-5.749c5.578,0 9.885,1.916 12.921,5.749c3.036,3.814 4.554,9.25 4.554,16.308" style="fill:white;fill-rule:nonzero;"/>
                <path d="M706.246,736.655c-0.001,-5.313 -0.503,-9.051 -1.509,-11.214c-0.987,-2.182 -2.656,-3.273 -5.009,-3.273c-2.353,-0 -4.032,1.091 -5.038,3.273c-1.005,2.163 -1.508,5.901 -1.508,11.214c-0,5.369 0.503,9.155 1.508,11.355c1.006,2.201 2.685,3.302 5.038,3.302c2.334,-0 4.004,-1.101 5.009,-3.302c1.006,-2.201 1.508,-5.986 1.509,-11.355m10.957,0.085c-0,7.04 -1.518,12.475 -4.554,16.308c-3.036,3.814 -7.343,5.721 -12.921,5.721c-5.598,-0 -9.914,-1.907 -12.95,-5.721c-3.036,-3.833 -4.554,-9.268 -4.554,-16.308c-0,-7.058 1.518,-12.494 4.554,-16.308c3.036,-3.833 7.352,-5.749 12.95,-5.749c5.578,0 9.885,1.916 12.921,5.749c3.036,3.814 4.553,9.25 4.554,16.308" style="fill:white;fill-rule:nonzero;"/>
                <path d="M437.455,784.534l9.677,0l-0,-27.465l-9.933,2.049l-0,-7.456l9.876,-2.05l10.417,0l-0,34.922l9.676,-0l0,7.571l-29.713,-0l0,-7.571" style="fill:white;fill-rule:nonzero;"/>
                <path d="M487.957,784.034l18.699,0l-0,8.055l-30.88,-0l-0,-8.055l15.511,-13.689c1.385,-1.253 2.41,-2.476 3.074,-3.672c0.664,-1.195 0.996,-2.438 0.996,-3.728c-0,-1.992 -0.674,-3.596 -2.021,-4.81c-1.328,-1.214 -3.102,-1.822 -5.322,-1.822c-1.707,0 -3.576,0.37 -5.607,1.11c-2.03,0.721 -4.202,1.803 -6.517,3.245l-0,-9.335c2.466,-0.816 4.905,-1.433 7.314,-1.85c2.41,-0.437 4.772,-0.655 7.087,-0.655c5.085,0 9.032,1.12 11.84,3.358c2.827,2.239 4.241,5.36 4.241,9.364c-0,2.315 -0.598,4.478 -1.793,6.489c-1.195,1.992 -3.709,4.668 -7.542,8.026l-9.079,7.969" style="fill:white;fill-rule:nonzero;"/>
                <path d="M538.501,770.836c0,-5.312 -0.503,-9.05 -1.508,-11.213c-0.987,-2.182 -2.657,-3.273 -5.009,-3.273c-2.353,-0 -4.032,1.091 -5.038,3.273c-1.006,2.163 -1.508,5.9 -1.508,11.213c-0,5.37 0.502,9.155 1.508,11.356c1.006,2.201 2.685,3.302 5.038,3.302c2.334,-0 4.003,-1.101 5.009,-3.302c1.005,-2.201 1.508,-5.986 1.508,-11.356m10.957,0.086c0,7.039 -1.518,12.475 -4.553,16.308c-3.036,3.814 -7.344,5.72 -12.922,5.72c-5.597,0 -9.914,-1.906 -12.95,-5.72c-3.035,-3.833 -4.554,-9.269 -4.554,-16.308c0,-7.059 1.518,-12.495 4.554,-16.308c3.036,-3.833 7.353,-5.749 12.95,-5.75c5.578,0 9.886,1.917 12.922,5.75c3.035,3.813 4.553,9.249 4.553,16.308" style="fill:white;fill-rule:nonzero;"/>
                <path d="M315.883,686.652l9.677,-0l-0,-27.465l-9.933,2.049l-0,-7.456l9.876,-2.05l10.417,0l-0,34.922l9.676,-0l0,7.571l-29.713,-0l0,-7.571" style="fill:white;fill-rule:nonzero;"/>
                <path d="M371.048,660.755l-12.01,17.789l12.01,-0l0,-17.789m-1.821,-9.022l12.181,0l0,26.811l6.062,-0l0,7.94l-6.062,0l0,7.742l-10.36,-0l0,-7.742l-18.841,0l0,-9.392l17.02,-25.359" style="fill:white;fill-rule:nonzero;"/>
                <path d="M416.929,672.954c0,-5.312 -0.503,-9.05 -1.508,-11.213c-0.987,-2.182 -2.657,-3.273 -5.009,-3.274c-2.353,0.001 -4.032,1.092 -5.038,3.274c-1.006,2.163 -1.508,5.9 -1.508,11.213c-0,5.37 0.502,9.155 1.508,11.356c1.006,2.201 2.685,3.301 5.038,3.301c2.334,0 4.003,-1.1 5.009,-3.301c1.005,-2.201 1.508,-5.986 1.508,-11.356m10.957,0.086c0,7.039 -1.517,12.475 -4.553,16.308c-3.036,3.814 -7.343,5.72 -12.922,5.72c-5.597,0 -9.914,-1.907 -12.95,-5.72c-3.035,-3.833 -4.554,-9.269 -4.554,-16.308c0,-7.059 1.518,-12.495 4.554,-16.308c3.036,-3.833 7.353,-5.749 12.95,-5.75c5.579,0 9.886,1.917 12.922,5.75c3.035,3.813 4.553,9.249 4.553,16.308" style="fill:white;fill-rule:nonzero;"/>
                <path d="M272.375,581.65l9.677,0l-0,-27.464l-9.933,2.049l0,-7.457l9.876,-2.049l10.417,-0l0,34.921l9.677,0l-0,7.571l-29.713,0l-0,-7.571" style="fill:white;fill-rule:nonzero;"/>
                <path d="M327.166,568.244c-1.917,0 -3.359,0.626 -4.326,1.879c-0.949,1.233 -1.423,3.092 -1.423,5.578c-0,2.485 0.474,4.354 1.423,5.607c0.967,1.233 2.409,1.85 4.326,1.85c1.935,-0 3.377,-0.617 4.326,-1.85c0.968,-1.253 1.451,-3.122 1.451,-5.607c0,-2.486 -0.483,-4.345 -1.451,-5.578c-0.949,-1.253 -2.391,-1.879 -4.326,-1.879m13.547,-20.406l0,7.855c-1.802,-0.854 -3.501,-1.48 -5.094,-1.879c-1.594,-0.417 -3.15,-0.626 -4.668,-0.626c-3.263,0 -5.806,0.911 -7.627,2.732c-1.822,1.803 -2.884,4.488 -3.188,8.055c1.252,-0.93 2.609,-1.622 4.07,-2.078c1.461,-0.474 3.055,-0.711 4.781,-0.711c4.345,-0 7.846,1.271 10.503,3.814c2.675,2.542 4.013,5.872 4.013,9.989c-0,4.554 -1.49,8.206 -4.469,10.958c-2.979,2.732 -6.973,4.098 -11.982,4.098c-5.521,-0 -9.799,-1.86 -12.835,-5.578c-3.017,-3.738 -4.526,-9.032 -4.526,-15.881c0,-7.021 1.765,-12.532 5.294,-16.536c3.548,-4.022 8.406,-6.034 14.572,-6.034c1.954,0 3.852,0.152 5.692,0.456c1.841,0.303 3.662,0.759 5.465,1.366" style="fill:white;fill-rule:nonzero;"/>
                <path d="M373.421,567.953c0,-5.313 -0.502,-9.051 -1.508,-11.214c-0.987,-2.182 -2.656,-3.273 -5.009,-3.273c-2.353,-0 -4.032,1.091 -5.038,3.273c-1.005,2.163 -1.508,5.901 -1.508,11.214c-0,5.369 0.503,9.155 1.508,11.355c1.006,2.201 2.685,3.302 5.038,3.302c2.334,-0 4.004,-1.101 5.009,-3.302c1.006,-2.2 1.508,-5.986 1.508,-11.355m10.958,0.085c-0,7.04 -1.518,12.475 -4.554,16.308c-3.036,3.814 -7.343,5.721 -12.921,5.721c-5.598,-0 -9.914,-1.907 -12.95,-5.721c-3.036,-3.833 -4.554,-9.268 -4.554,-16.308c-0,-7.058 1.518,-12.494 4.554,-16.308c3.036,-3.833 7.352,-5.749 12.95,-5.749c5.578,-0 9.885,1.916 12.921,5.749c3.036,3.814 4.553,9.25 4.554,16.308" style="fill:white;fill-rule:nonzero;"/>
                <path d="M282.95,484.06l9.677,-0l-0,-27.465l-9.933,2.049l-0,-7.457l9.876,-2.049l10.417,0l-0,34.922l9.676,-0l0,7.57l-29.713,0l0,-7.57" style="fill:white;fill-rule:nonzero;"/>
                <path d="M336.95,472.61c-2.049,0 -3.624,0.56 -4.725,1.68c-1.1,1.119 -1.651,2.722 -1.651,4.81c0,2.087 0.551,3.69 1.651,4.81c1.101,1.1 2.676,1.65 4.725,1.65c2.03,0 3.586,-0.55 4.667,-1.65c1.082,-1.12 1.623,-2.723 1.623,-4.81c-0,-2.107 -0.541,-3.71 -1.623,-4.81c-1.081,-1.12 -2.637,-1.68 -4.667,-1.68m-7.998,-3.614c-2.58,-0.778 -4.525,-1.973 -5.834,-3.586c-1.309,-1.613 -1.964,-3.624 -1.964,-6.034c-0,-3.586 1.338,-6.318 4.013,-8.197c2.675,-1.878 6.603,-2.817 11.783,-2.817c5.142,-0 9.05,0.939 11.726,2.817c2.675,1.86 4.013,4.592 4.013,8.197c-0,2.41 -0.664,4.421 -1.993,6.034c-1.309,1.613 -3.254,2.808 -5.834,3.586c2.884,0.797 5.056,2.096 6.517,3.899c1.48,1.784 2.22,4.041 2.22,6.774c0,4.212 -1.404,7.4 -4.212,9.563c-2.789,2.144 -6.935,3.216 -12.437,3.216c-5.522,-0 -9.696,-1.072 -12.523,-3.216c-2.808,-2.163 -4.212,-5.351 -4.212,-9.563c-0,-2.732 0.73,-4.99 2.191,-6.774c1.48,-1.803 3.662,-3.102 6.546,-3.899m2.562,-8.51c-0,1.689 0.465,2.988 1.394,3.899c0.949,0.911 2.296,1.366 4.042,1.366c1.708,0 3.026,-0.455 3.956,-1.366c0.93,-0.911 1.394,-2.21 1.395,-3.899c-0.001,-1.689 -0.465,-2.979 -1.395,-3.871c-0.93,-0.911 -2.248,-1.366 -3.956,-1.366c-1.746,0 -3.093,0.455 -4.042,1.366c-0.929,0.911 -1.394,2.201 -1.394,3.871" style="fill:white;fill-rule:nonzero;"/>
                <path d="M383.997,470.362c-0.001,-5.312 -0.503,-9.05 -1.509,-11.214c-0.987,-2.182 -2.656,-3.273 -5.009,-3.273c-2.353,0 -4.032,1.091 -5.038,3.273c-1.005,2.163 -1.508,5.901 -1.508,11.214c-0,5.37 0.503,9.155 1.508,11.356c1.006,2.201 2.685,3.301 5.038,3.301c2.334,0 4.004,-1.1 5.009,-3.301c1.006,-2.201 1.508,-5.986 1.509,-11.356m10.957,0.085c-0,7.04 -1.518,12.476 -4.554,16.309c-3.036,3.813 -7.343,5.72 -12.921,5.72c-5.598,0 -9.914,-1.907 -12.95,-5.72c-3.036,-3.833 -4.554,-9.269 -4.554,-16.309c-0,-7.058 1.518,-12.494 4.554,-16.308c3.036,-3.832 7.352,-5.749 12.95,-5.749c5.578,0 9.885,1.916 12.921,5.749c3.036,3.814 4.553,9.25 4.554,16.308" style="fill:white;fill-rule:nonzero;"/>
                <path d="M340.905,397.377l18.699,0l-0,8.055l-30.88,-0l-0,-8.055l15.511,-13.689c1.385,-1.253 2.41,-2.477 3.074,-3.672c0.664,-1.195 0.996,-2.438 0.996,-3.728c-0,-1.993 -0.674,-3.596 -2.021,-4.81c-1.328,-1.215 -3.102,-1.822 -5.322,-1.822c-1.708,0 -3.577,0.37 -5.607,1.11c-2.03,0.721 -4.202,1.803 -6.517,3.245l-0,-9.336c2.466,-0.815 4.904,-1.432 7.314,-1.85c2.41,-0.436 4.772,-0.654 7.087,-0.654c5.085,-0 9.032,1.119 11.84,3.358c2.827,2.239 4.241,5.36 4.241,9.364c-0,2.315 -0.598,4.478 -1.793,6.489c-1.196,1.992 -3.71,4.668 -7.542,8.026l-9.079,7.969" style="fill:white;fill-rule:nonzero;"/>
                <path d="M391.449,384.138c0,-5.313 -0.503,-9.051 -1.508,-11.214c-0.987,-2.182 -2.657,-3.273 -5.009,-3.273c-2.353,-0 -4.032,1.091 -5.038,3.273c-1.006,2.163 -1.509,5.901 -1.509,11.214c0,5.369 0.503,9.155 1.509,11.355c1.005,2.201 2.685,3.302 5.038,3.302c2.333,-0 4.003,-1.101 5.009,-3.302c1.005,-2.201 1.508,-5.986 1.508,-11.355m10.957,0.085c0,7.039 -1.518,12.475 -4.554,16.308c-3.035,3.814 -7.343,5.721 -12.921,5.721c-5.597,-0 -9.914,-1.907 -12.95,-5.721c-3.036,-3.833 -4.554,-9.269 -4.554,-16.308c0,-7.058 1.518,-12.494 4.554,-16.308c3.036,-3.833 7.352,-5.749 12.95,-5.749c5.578,-0 9.885,1.916 12.921,5.749c3.036,3.814 4.554,9.25 4.554,16.308" style="fill:white;fill-rule:nonzero;"/>
                <path d="M431.959,384.138c0,-5.313 -0.503,-9.051 -1.508,-11.214c-0.987,-2.182 -2.657,-3.273 -5.009,-3.273c-2.353,-0 -4.032,1.091 -5.038,3.273c-1.006,2.163 -1.508,5.901 -1.508,11.214c-0,5.369 0.502,9.155 1.508,11.355c1.006,2.201 2.685,3.302 5.038,3.302c2.334,-0 4.003,-1.101 5.009,-3.302c1.005,-2.201 1.508,-5.986 1.508,-11.355m10.957,0.085c0,7.039 -1.517,12.475 -4.553,16.308c-3.036,3.814 -7.344,5.721 -12.922,5.721c-5.597,-0 -9.914,-1.907 -12.95,-5.721c-3.035,-3.833 -4.554,-9.269 -4.554,-16.308c0,-7.058 1.518,-12.494 4.554,-16.308c3.036,-3.833 7.353,-5.749 12.95,-5.749c5.578,-0 9.886,1.916 12.922,5.749c3.035,3.814 4.553,9.25 4.553,16.308" style="fill:white;fill-rule:nonzero;"/>
            </g>
            <g>
                <path d="M754.125,246.107l-24.46,33.698c133.575,97.05 172.27,279.32 89.771,422.338l36.04,20.817c93.227,-161.474 49.491,-367.247 -101.354,-476.837l0.003,-0.016Z" style="fill:white;fill-rule:nonzero;"/>
                <path d="M768.197,312.722l-29.534,29.404c0.021,0.021 -0.021,0.108 -0,0.13c109.681,109.756 109.727,287.618 -0,397.349c-89.943,89.942 -229.034,108.224 -339.19,44.628l-20.817,36.039c126.476,73.018 286.273,52.005 389.538,-51.26c126.01,-126.01 126.01,-330.276 -0,-456.27l0.003,-0.02Z" style="fill:rgb(0,195,0);fill-rule:nonzero;"/>
                <path d="M262.841,587.758l-40.984,6.895c16.037,94.818 73.497,177.524 156.778,225.608l20.817,-36.04c-72.535,-41.88 -122.646,-113.878 -136.61,-196.463l-0.001,-0Z" style="fill:rgb(240,240,0);fill-rule:nonzero;"/>
            </g>
            <path d="M159.565,600.977l1.389,8.21l102.628,-17.359l-1.388,-8.21l-102.629,17.359Z" style="fill:rgb(255,0,0);"/>
            <g>
                <path d="M900.454,676.47l2.848,-7.825l-97.808,-35.599l-2.848,7.824l97.808,35.6Z" style="fill:white;"/>
                <path d="M832.294,791.578l5.353,-6.379l-79.734,-66.905l-5.352,6.379l79.733,66.905Z" style="fill:white;"/>
                <path d="M728.921,876.456l7.211,-4.163l-52.043,-90.141l-7.211,4.163l52.043,90.141Z" style="fill:white;"/>
                <path d="M602.753,920.838l8.201,-1.446l-18.075,-102.504l-8.2,1.446l18.074,102.504Z" style="fill:white;"/>
                <path d="M468.982,919.464l8.2,1.446l18.075,-102.505l-8.201,-1.446l-18.074,102.505Z" style="fill:white;"/>
                <path d="M343.851,872.246l7.211,4.163l52.043,-90.141l-7.211,-4.164l-52.043,90.142Z" style="fill:white;"/>
                <path d="M918.881,609.764l0.723,-4.1l-82.003,-14.459l-0.723,4.1l82.003,14.459Z" style="fill:white;"/>
                <path d="M872.455,735.238l2.082,-3.606l-72.113,-41.634l-2.082,3.606l72.113,41.634Z" style="fill:white;"/>
                <path d="M785.967,837.184l3.19,-2.676l-53.524,-63.787l-3.19,2.676l53.524,63.787Z" style="fill:white;"/>
                <path d="M669.762,903.442l3.912,-1.424l-28.479,-78.247l-3.912,1.424l28.479,78.247Z" style="fill:white;"/>
                <rect x="537.918" y="842.603" width="4.163" height="83.268" style="fill:white;"/>
                <path d="M406.335,901.937l3.912,1.424l28.48,-78.247l-3.913,-1.424l-28.479,78.247Z" style="fill:white;"/>
                <path d="M251.013,795.417l5.572,6.188l77.35,-69.647l-5.572,-6.188l-77.35,69.647Z" style="fill:white;"/>
                <path d="M186.442,693.696l3.387,7.607l95.087,-42.336l-3.387,-7.607l-95.087,42.336Z" style="fill:white;"/>
                <path d="M156.54,576.943l0.871,8.282l103.515,-10.88l-0.87,-8.282l-103.516,10.88Z" style="fill:white;"/>
                <path d="M296.01,838.817l3.236,2.62l52.402,-64.712l-3.236,-2.62l-52.402,64.712Z" style="fill:white;"/>
                <path d="M215.883,748.863l2.268,3.492l69.835,-45.351l-2.268,-3.492l-69.835,45.351Z" style="fill:white;"/>
                <path d="M167.448,638.539l1.078,4.022l80.432,-21.552l-1.078,-4.021l-80.432,21.551Z" style="fill:white;"/>
                <path d="M157.404,496.45l-0.87,8.281l103.515,10.88l0.87,-8.281l-103.515,-10.88Z" style="fill:white;"/>
                <path d="M174.99,417.889l-2.573,7.92l98.992,32.164l2.573,-7.919l-98.992,-32.165Z" style="fill:white;"/>
                <path d="M208.533,344.713l-4.164,7.211l90.141,52.043l4.164,-7.211l-90.141,-52.043Z" style="fill:white;"/>
                <path d="M256.573,280.061l-5.572,6.188l77.35,69.646l5.572,-6.188l-77.35,-69.646Z" style="fill:white;"/>
                <path d="M154.883,538.757l0,4.163l83.269,0l-0,-4.163l-83.269,-0Z" style="fill:white;"/>
                <path d="M163.719,458.761l-0.865,4.073l81.449,17.312l0.866,-4.072l-81.45,-17.313Z" style="fill:white;"/>
                <path d="M189.001,382.31l-1.693,3.804l76.07,33.868l1.693,-3.803l-76.07,-33.869Z" style="fill:white;"/>
                <path d="M229.631,312.793l-2.448,3.369l67.366,48.944l2.447,-3.368l-67.365,-48.945Z" style="fill:white;"/>
                <path d="M769.71,231.725l-6.737,-4.894l-61.18,84.207l6.737,4.895l61.18,-84.208Z" style="fill:white;"/>
                <path d="M813.766,270.021l-2.944,-2.944l-58.88,58.88l2.944,2.944l58.88,-58.88Z" style="fill:white;"/>
                <path d="M884.056,367.87l-1.89,-3.709l-74.193,37.803l1.89,3.709l74.193,-37.803Z" style="fill:white;"/>
                <path d="M920.673,482.652l-0.652,-4.112l-82.243,13.026l0.651,4.112l82.244,-13.026Z" style="fill:white;"/>
                <path d="M853.986,317.853l-4.895,-6.737l-84.207,61.181l4.894,6.736l84.208,-61.18Z" style="fill:white;"/>
                <path d="M907.551,425.826l-2.573,-7.92l-98.991,32.165l2.573,7.919l98.991,-32.164Z" style="fill:white;"/>
                <path d="M925.117,545.002l-0,-8.327l-104.086,0l0,8.327l104.086,-0Z" style="fill:white;"/>
            </g>
        </g>
        <g id="Needle">
            <rect x="515.736" y="182.139" width="48.529" height="724.554" style="fill:none;"/>
            <g>
                <path d="M552.789,323.831l-7.659,-13.244l-0,-114.406l-5.106,-14.042l-5.106,14.042l-0,114.09l-7.659,13.324l-0,178.954l25.53,0l0,-178.715l-0,-0.003Z" style="fill:white;fill-rule:nonzero;stroke:rgb(50,50,50);stroke-width:1.25px;"/>
                <path d="M552.789,540.821l-0,-38.296l-25.531,0l0,38.296l25.531,0Z" style="fill:rgb(30,30,30);stroke:rgb(50,50,50);stroke-width:1.25px;"/>
                <path d="M569.359,694.001c0,-11.622 -6.798,-21.65 -16.594,-26.408l-0,-116.164c2.409,-2.88 3.829,-6.562 3.829,-10.61c0,-9.165 -7.43,-16.595 -16.594,-16.595c-9.165,-0 -16.595,7.43 -16.595,16.595c-0,4.049 1.42,7.73 3.83,10.61l-0,116.164c-9.797,4.758 -16.595,14.786 -16.595,26.408c-0,16.215 13.145,29.36 29.36,29.36c16.215,0 29.36,-13.144 29.36,-29.36l-0.001,0Z" style="fill:rgb(30,30,30);fill-rule:nonzero;stroke:rgb(50,50,50);stroke-width:1.25px;"/>
            </g>
            <path d="M539.994,543.414c-1.41,0 -2.553,-1.143 -2.553,-2.553c-0,-1.41 1.143,-2.553 2.553,-2.553c1.41,-0 2.553,1.143 2.553,2.553c-0,1.41 -1.143,2.553 -2.553,2.553Z" style="fill:rgb(50,50,50);fill-rule:nonzero;"/>
        </g>
    </g>
    <defs>
        <radialGradient id="_Radial1" cx="0" cy="0" r="1" gradientUnits="userSpaceOnUse" gradientTransform="matrix(999.706,-25.7587,25.7587,999.706,562.982,354.194)"><stop offset="0" style="stop-color:rgb(26,26,26);stop-opacity:1"/><stop offset="0.25" style="stop-color:rgb(26,26,26);stop-opacity:1"/><stop offset="1" style="stop-color:black;stop-opacity:1"/></radialGradient>
        <radialGradient id="_Radial2" cx="0" cy="0" r="1" gradientUnits="userSpaceOnUse" gradientTransform="matrix(487.226,0,0,487.226,542.021,533.338)"><stop offset="0" style="stop-color:rgb(77,77,77);stop-opacity:1"/><stop offset="0.25" style="stop-color:rgb(77,77,77);stop-opacity:1"/><stop offset="1" style="stop-color:rgb(26,26,26);stop-opacity:1"/></radialGradient>
        <radialGradient id="_Radial3" cx="0" cy="0" r="1" gradientUnits="userSpaceOnUse" gradientTransform="matrix(411.214,0,0,411.214,639.989,452.849)"><stop offset="0" style="stop-color:rgb(26,26,26);stop-opacity:1"/><stop offset="0.2" style="stop-color:rgb(26,26,26);stop-opacity:1"/><stop offset="1" style="stop-color:black;stop-opacity:1"/></radialGradient>
    </defs>
</svg>
