<?xml version="1.0" encoding="UTF-8" standalone="no"?>
<!DOCTYPE svg PUBLIC "-//W3C//DTD SVG 1.1//EN" "http://www.w3.org/Graphics/SVG/1.1/DTD/svg11.dtd">
<svg width="100%" height="100%" viewBox="0 0 1080 1080" version="1.1" xmlns="http://www.w3.org/2000/svg" xmlns:xlink="http://www.w3.org/1999/xlink" xml:space="preserve" xmlns:serif="http://www.serif.com/" style="fill-rule:evenodd;clip-rule:evenodd;">
    <g id="Airspeed" transform="matrix(11.3683,0,0,11.3683,-119.701,-2023.4)">
        <g id="Background" transform="matrix(0.355809,0,0,0.355809,-8.85009,174.784)">
            <g transform="matrix(-2.66454e-15,247.231,247.231,2.66454e-15,142.192,149.363)">
                <circle cx="-0.028" cy="0.185" r="0.54" style="fill:url(#_Radial1);"/>
            </g>
            <g transform="matrix(0,120.453,120.453,0,188.466,140.853)">
                <ellipse cx="0" cy="0" rx="0.978" ry="1.021" style="fill:url(#_Radial2);"/>
            </g>
            <g transform="matrix(0.247222,0,0,0.247222,54.466,9)">
                <path d="M534.359,268.598L611.02,83.926L797.393,161.293L718.206,352.049L910.344,272.638L987.424,459.135L801.217,536.095L986.111,612.848L908.741,799.226L721.544,721.517L800.949,913.648L614.446,990.727L533.941,795.935L454.67,986.895L268.297,909.528L345.052,724.63L158.849,801.588L81.769,615.092L273.891,535.687L83.138,456.501L160.507,270.123L348.962,348.354L272.004,162.146L458.508,85.066L534.359,268.598Z" style="fill:rgb(26,26,26);"/>
            </g>
            <g transform="matrix(0.247222,0,0,0.247222,54.466,9)">
                <path d="M635.056,300.16L771.212,164.008L907.829,300.629L767.555,440.899L966.742,440.899L966.742,635.056L775.585,635.056L909.665,769.135L773.06,905.741L635.056,767.739L635.056,970.787L440.899,970.787L440.899,767.545L302.699,905.741L166.082,769.121L300.15,635.056L109.213,635.056L109.213,440.899L308.214,440.899L167.928,300.614L304.534,164.008L440.899,300.372L440.899,109.213L635.056,109.213L635.056,300.16Z"/>
            </g>
            <g transform="matrix(0,101.661,101.661,0,165.61,168.03)">
                <circle cx="-0.252" cy="0.211" r="1" style="fill:url(#_Radial3);"/>
            </g>
        </g>
        <g id="Plate" transform="matrix(0.366231,0,0,0.366231,156.996,-113.467)">
            <g transform="matrix(1,0,0,1,-658.16,-6.6406)">
                <g transform="matrix(1,0,0,1,-36.861,-46.539)">
                    <path d="M399.51,901.15L397.905,905.504L401.121,905.504L399.51,901.15M398.842,899.984L400.184,899.984L403.518,908.732L402.287,908.732L401.49,906.488L397.547,906.488L396.75,908.732L395.502,908.732L398.842,899.984" style="fill:white;fill-rule:nonzero;"/>
                    <path d="M404.79,899.98L405.974,899.98L405.974,908.728L404.79,908.728L404.79,899.98" style="fill:white;fill-rule:nonzero;"/>
                    <path d="M412.48,904.63C412.734,904.716 412.98,904.9 413.218,905.181C413.46,905.462 413.703,905.849 413.945,906.341L415.146,908.732L413.875,908.732L412.755,906.487C412.466,905.902 412.185,905.513 411.912,905.321C411.642,905.13 411.273,905.034 410.804,905.034L409.515,905.034L409.515,908.732L408.332,908.732L408.332,899.984L411.003,899.984C412.003,899.984 412.75,900.193 413.242,900.611C413.734,901.029 413.98,901.659 413.98,902.503C413.98,903.054 413.851,903.511 413.593,903.874C413.339,904.238 412.968,904.49 412.48,904.63M409.515,900.956L409.515,904.062L411.004,904.062C411.574,904.062 412.004,903.931 412.293,903.669C412.586,903.404 412.732,903.015 412.732,902.503C412.732,901.992 412.586,901.607 412.293,901.349C412.004,901.087 411.574,900.956 411.004,900.956L409.515,900.956" style="fill:white;fill-rule:nonzero;"/>
                    <path d="M421.92,900.27L421.92,901.424C421.471,901.209 421.047,901.049 420.649,900.944C420.25,900.838 419.865,900.786 419.494,900.786C418.85,900.786 418.352,900.911 418,901.161C417.652,901.411 417.479,901.766 417.479,902.227C417.479,902.614 417.594,902.907 417.824,903.106C418.059,903.301 418.5,903.459 419.149,903.581L419.863,903.727C420.746,903.895 421.397,904.192 421.815,904.618C422.236,905.04 422.447,905.606 422.447,906.317C422.447,907.165 422.162,907.807 421.592,908.245C421.025,908.682 420.194,908.901 419.096,908.901C418.682,908.901 418.24,908.854 417.772,908.76C417.307,908.666 416.824,908.528 416.324,908.344L416.324,907.125C416.805,907.395 417.275,907.598 417.736,907.735C418.197,907.871 418.65,907.94 419.096,907.94C419.772,907.94 420.293,907.807 420.66,907.541C421.027,907.276 421.211,906.897 421.211,906.405C421.211,905.975 421.078,905.639 420.813,905.397C420.551,905.155 420.119,904.973 419.518,904.852L418.797,904.711C417.914,904.536 417.276,904.26 416.881,903.885C416.487,903.51 416.289,902.989 416.289,902.321C416.289,901.547 416.561,900.938 417.104,900.493C417.651,900.047 418.402,899.825 419.36,899.825C419.77,899.825 420.188,899.862 420.613,899.936C421.039,900.01 421.475,900.121 421.92,900.27" style="fill:white;fill-rule:nonzero;"/>
                    <path d="M425.47,900.96L425.47,904.247L426.958,904.247C427.509,904.247 427.935,904.105 428.236,903.819C428.536,903.534 428.687,903.128 428.687,902.601C428.687,902.077 428.536,901.673 428.236,901.388C427.935,901.103 427.509,900.96 426.958,900.96L425.47,900.96M424.286,899.987L426.958,899.987C427.939,899.987 428.679,900.21 429.179,900.655C429.683,901.097 429.935,901.745 429.935,902.601C429.935,903.464 429.683,904.116 429.179,904.558C428.679,904.999 427.939,905.22 426.958,905.22L425.47,905.22L425.47,908.735L424.286,908.735L424.286,899.987" style="fill:white;fill-rule:nonzero;"/>
                    <path d="M431.53,899.98L437.061,899.98L437.061,900.976L432.714,900.976L432.714,903.566L436.88,903.566L436.88,904.562L432.714,904.562L432.714,907.732L437.167,907.732L437.167,908.728L431.53,908.728L431.53,899.98" style="fill:white;fill-rule:nonzero;"/>
                    <path d="M439.13,899.98L444.661,899.98L444.661,900.976L440.314,900.976L440.314,903.566L444.48,903.566L444.48,904.562L440.314,904.562L440.314,907.732L444.767,907.732L444.767,908.728L439.13,908.728L439.13,899.98" style="fill:white;fill-rule:nonzero;"/>
                    <path d="M447.9,900.96L447.9,907.763L449.33,907.763C450.537,907.763 451.42,907.489 451.978,906.942C452.541,906.396 452.822,905.532 452.822,904.353C452.822,903.181 452.541,902.323 451.978,901.78C451.419,901.233 450.537,900.96 449.33,900.96L447.9,900.96M446.716,899.987L449.148,899.987C450.843,899.987 452.087,900.341 452.88,901.048C453.673,901.751 454.07,902.853 454.07,904.353C454.07,905.86 453.671,906.968 452.874,907.675C452.078,908.382 450.835,908.736 449.148,908.736L446.716,908.736L446.716,899.988" style="fill:white;fill-rule:nonzero;"/>
                </g>
                <g transform="matrix(1,0,0,1,-26.648,832.68)">
                    <path d="M394.87,120.77L396.054,120.77L396.054,124.467L399.979,120.77L401.503,120.77L397.161,124.848L401.813,129.518L400.255,129.518L396.054,125.305L396.054,129.518L394.87,129.518L394.87,120.77" style="fill:white;fill-rule:nonzero;"/>
                    <path d="M402.75,120.77L404.344,120.77L408.223,128.088L408.223,120.77L409.371,120.77L409.371,129.518L407.777,129.518L403.898,122.2L403.898,129.518L402.75,129.518L402.75,120.77" style="fill:white;fill-rule:nonzero;"/>
                    <path d="M415.28,121.57C414.421,121.57 413.737,121.89 413.229,122.531C412.725,123.172 412.473,124.045 412.473,125.15C412.473,126.252 412.725,127.123 413.229,127.763C413.737,128.404 414.421,128.724 415.28,128.724C416.139,128.724 416.819,128.404 417.319,127.763C417.823,127.123 418.075,126.252 418.075,125.15C418.075,124.045 417.823,123.172 417.319,122.531C416.819,121.89 416.139,121.57 415.28,121.57M415.28,120.609C416.507,120.609 417.487,121.021 418.221,121.845C418.956,122.666 419.323,123.767 419.323,125.15C419.323,126.529 418.956,127.631 418.221,128.455C417.487,129.275 416.507,129.685 415.28,129.685C414.049,129.685 413.065,129.275 412.327,128.455C411.593,127.634 411.225,126.533 411.225,125.15C411.225,123.767 411.592,122.666 412.327,121.845C413.065,121.021 414.049,120.609 415.28,120.609" style="fill:white;fill-rule:nonzero;"/>
                    <path d="M419.96,120.77L427.36,120.77L427.36,121.766L424.255,121.766L424.255,129.518L423.066,129.518L423.066,121.766L419.96,121.766L419.96,120.77" style="fill:white;fill-rule:nonzero;"/>
                    <path d="M433.75,121.05L433.75,122.204C433.301,121.989 432.877,121.829 432.479,121.724C432.08,121.618 431.695,121.566 431.324,121.566C430.68,121.566 430.182,121.691 429.83,121.941C429.482,122.191 429.309,122.546 429.309,123.007C429.309,123.394 429.424,123.687 429.654,123.886C429.889,124.081 430.33,124.239 430.979,124.361L431.693,124.507C432.576,124.675 433.227,124.972 433.645,125.398C434.066,125.82 434.277,126.386 434.277,127.097C434.277,127.945 433.992,128.587 433.422,129.025C432.855,129.462 432.024,129.681 430.926,129.681C430.512,129.681 430.07,129.634 429.602,129.54C429.137,129.446 428.654,129.308 428.154,129.124L428.154,127.905C428.635,128.175 429.105,128.378 429.566,128.515C430.027,128.651 430.48,128.72 430.926,128.72C431.602,128.72 432.123,128.587 432.49,128.321C432.857,128.056 433.041,127.677 433.041,127.185C433.041,126.755 432.908,126.419 432.643,126.177C432.381,125.935 431.949,125.753 431.348,125.632L430.627,125.491C429.744,125.316 429.106,125.04 428.711,124.665C428.317,124.29 428.119,123.769 428.119,123.101C428.119,122.327 428.391,121.718 428.934,121.273C429.481,120.827 430.232,120.605 431.19,120.605C431.6,120.605 432.018,120.642 432.443,120.716C432.869,120.79 433.305,120.902 433.75,121.05" style="fill:white;fill-rule:nonzero;"/>
                </g>
            </g>
            <g transform="matrix(1,0,0,1,-684.37,7.8125)">
                <path d="M439.24,866.59L436.355,870.863L439.24,870.863L439.24,866.59M438.803,864.423L441.728,864.423L441.728,870.862L443.184,870.862L443.184,872.77L441.728,872.77L441.728,874.629L439.24,874.629L439.24,872.77L434.715,872.77L434.715,870.514L438.803,864.423" style="fill:white;fill-rule:nonzero;"/>
                <path d="M450.26,869.51C450.26,868.234 450.139,867.336 449.898,866.817C449.661,866.293 449.26,866.03 448.695,866.03C448.129,866.03 447.726,866.293 447.485,866.817C447.243,867.336 447.122,868.234 447.122,869.51C447.122,870.8 447.243,871.709 447.485,872.237C447.726,872.766 448.129,873.03 448.695,873.03C449.255,873.03 449.656,872.766 449.898,872.237C450.139,871.709 450.26,870.8 450.26,869.51M452.892,869.531C452.892,871.221 452.527,872.527 451.798,873.448C451.069,874.364 450.034,874.822 448.695,874.822C447.35,874.822 446.313,874.363 445.584,873.448C444.855,872.527 444.49,871.221 444.49,869.531C444.49,867.835 444.855,866.53 445.584,865.613C446.313,864.693 447.35,864.233 448.695,864.233C450.034,864.233 451.069,864.693 451.798,865.613C452.527,866.53 452.892,867.835 452.892,869.531" style="fill:white;fill-rule:nonzero;"/>
                <path d="M460.78,898.32C460.32,898.32 459.973,898.47 459.741,898.771C459.513,899.067 459.399,899.514 459.399,900.111C459.399,900.708 459.513,901.157 459.741,901.458C459.973,901.754 460.32,901.902 460.78,901.902C461.245,901.902 461.591,901.754 461.819,901.458C462.052,901.157 462.168,900.708 462.168,900.111C462.168,899.514 462.052,899.067 461.819,898.771C461.591,898.47 461.245,898.32 460.78,898.32M464.034,893.419L464.034,895.305C463.601,895.1 463.193,894.95 462.81,894.854C462.427,894.754 462.054,894.704 461.689,894.704C460.905,894.704 460.295,894.922 459.857,895.36C459.42,895.793 459.164,896.438 459.092,897.295C459.392,897.071 459.718,896.905 460.069,896.796C460.42,896.682 460.803,896.625 461.218,896.625C462.261,896.625 463.102,896.93 463.74,897.541C464.383,898.151 464.704,898.951 464.704,899.94C464.704,901.034 464.346,901.911 463.631,902.572C462.915,903.228 461.956,903.556 460.753,903.556C459.427,903.556 458.399,903.11 457.67,902.216C456.945,901.319 456.583,900.047 456.583,898.402C456.583,896.716 457.007,895.392 457.854,894.43C458.707,893.464 459.873,892.981 461.354,892.981C461.824,892.981 462.279,893.018 462.722,893.091C463.164,893.163 463.601,893.273 464.034,893.419" style="fill:white;fill-rule:nonzero;"/>
                <path d="M471.89,898.24C471.89,896.964 471.769,896.066 471.528,895.547C471.291,895.023 470.89,894.76 470.325,894.76C469.759,894.76 469.356,895.023 469.115,895.547C468.873,896.066 468.752,896.964 468.752,898.24C468.752,899.53 468.873,900.439 469.115,900.968C469.356,901.496 469.759,901.76 470.325,901.76C470.885,901.76 471.286,901.496 471.528,900.968C471.769,900.439 471.89,899.53 471.89,898.24M474.522,898.261C474.522,899.951 474.157,901.257 473.428,902.178C472.699,903.094 471.664,903.552 470.325,903.552C468.98,903.552 467.943,903.094 467.214,902.178C466.485,901.257 466.12,899.951 466.12,898.261C466.12,896.565 466.485,895.26 467.214,894.343C467.943,893.423 468.98,892.963 470.325,892.963C471.664,892.963 472.699,893.423 473.428,894.343C474.157,895.26 474.522,896.565 474.522,898.261" style="fill:white;fill-rule:nonzero;"/>
                <path d="M461.83,937.17C461.338,937.17 460.96,937.304 460.695,937.573C460.431,937.842 460.299,938.227 460.299,938.729C460.299,939.23 460.431,939.615 460.695,939.884C460.96,940.148 461.338,940.28 461.83,940.28C462.318,940.28 462.691,940.148 462.951,939.884C463.211,939.615 463.341,939.23 463.341,938.729C463.341,938.223 463.211,937.838 462.951,937.573C462.691,937.304 462.318,937.17 461.83,937.17M459.909,936.302C459.289,936.115 458.822,935.828 458.508,935.441C458.193,935.053 458.036,934.57 458.036,933.991C458.036,933.13 458.357,932.474 459,932.023C459.642,931.571 460.586,931.346 461.83,931.346C463.065,931.346 464.004,931.571 464.646,932.023C465.289,932.469 465.61,933.125 465.61,933.991C465.61,934.57 465.451,935.053 465.132,935.441C464.817,935.828 464.35,936.115 463.73,936.302C464.423,936.493 464.945,936.805 465.296,937.238C465.651,937.667 465.829,938.209 465.829,938.865C465.829,939.877 465.492,940.643 464.817,941.162C464.147,941.677 463.152,941.935 461.83,941.935C460.504,941.935 459.501,941.677 458.822,941.162C458.148,940.643 457.81,939.877 457.81,938.865C457.81,938.209 457.986,937.667 458.337,937.238C458.692,936.805 459.216,936.493 459.909,936.302M460.524,934.258C460.524,934.663 460.636,934.976 460.859,935.194C461.087,935.413 461.411,935.522 461.83,935.522C462.24,935.522 462.557,935.413 462.78,935.194C463.004,934.976 463.115,934.663 463.115,934.258C463.115,933.852 463.004,933.542 462.78,933.328C462.557,933.109 462.24,933 461.83,933C461.411,933 461.087,933.109 460.859,933.328C460.636,933.547 460.524,933.857 460.524,934.258" style="fill:white;fill-rule:nonzero;"/>
                <path d="M473.13,936.62C473.13,935.344 473.009,934.446 472.768,933.927C472.531,933.403 472.13,933.14 471.565,933.14C470.999,933.14 470.596,933.403 470.355,933.927C470.113,934.446 469.992,935.344 469.992,936.62C469.992,937.91 470.113,938.819 470.355,939.348C470.596,939.876 470.999,940.14 471.565,940.14C472.125,940.14 472.526,939.876 472.768,939.348C473.009,938.819 473.13,937.91 473.13,936.62M475.762,936.641C475.762,938.331 475.397,939.637 474.668,940.558C473.939,941.474 472.904,941.932 471.565,941.932C470.22,941.932 469.183,941.473 468.454,940.558C467.725,939.637 467.36,938.331 467.36,936.641C467.36,934.945 467.725,933.64 468.454,932.723C469.183,931.803 470.22,931.343 471.565,931.343C472.904,931.343 473.939,931.803 474.668,932.723C475.397,933.64 475.762,934.945 475.762,936.641" style="fill:white;fill-rule:nonzero;"/>
                <path d="M429.8,968.24L432.124,968.24L432.124,961.643L429.738,962.135L429.738,960.344L432.111,959.852L434.613,959.852L434.613,968.24L436.937,968.24L436.937,970.058L429.8,970.058L429.8,968.24" style="fill:white;fill-rule:nonzero;"/>
                <path d="M444.33,964.94C444.33,963.664 444.209,962.766 443.968,962.247C443.731,961.723 443.33,961.46 442.765,961.46C442.199,961.46 441.796,961.723 441.555,962.247C441.313,962.766 441.192,963.664 441.192,964.94C441.192,966.23 441.313,967.139 441.555,967.668C441.796,968.196 442.199,968.46 442.765,968.46C443.325,968.46 443.726,968.196 443.968,967.668C444.209,967.139 444.33,966.23 444.33,964.94M446.962,964.961C446.962,966.651 446.597,967.957 445.868,968.878C445.139,969.794 444.104,970.252 442.765,970.252C441.42,970.252 440.383,969.793 439.654,968.878C438.925,967.957 438.56,966.651 438.56,964.961C438.56,963.265 438.925,961.96 439.654,961.044C440.383,960.123 441.42,959.663 442.765,959.663C444.104,959.663 445.139,960.123 445.868,961.044C446.597,961.96 446.962,963.265 446.962,964.961" style="fill:white;fill-rule:nonzero;"/>
                <path d="M454.07,964.94C454.07,963.664 453.949,962.766 453.708,962.247C453.471,961.723 453.07,961.46 452.505,961.46C451.939,961.46 451.536,961.723 451.295,962.247C451.053,962.766 450.932,963.664 450.932,964.94C450.932,966.23 451.053,967.139 451.295,967.668C451.536,968.196 451.939,968.46 452.505,968.46C453.065,968.46 453.466,968.196 453.708,967.668C453.949,967.139 454.07,966.23 454.07,964.94M456.702,964.961C456.702,966.651 456.337,967.957 455.608,968.878C454.879,969.794 453.844,970.252 452.505,970.252C451.16,970.252 450.123,969.793 449.394,968.878C448.665,967.957 448.3,966.651 448.3,964.961C448.3,963.265 448.665,961.96 449.394,961.044C450.123,960.123 451.16,959.663 452.505,959.663C453.844,959.663 454.879,960.123 455.608,961.044C456.337,961.96 456.702,963.265 456.702,964.961" style="fill:white;fill-rule:nonzero;"/>
                <path d="M389.51,976.44L391.834,976.44L391.834,969.843L389.449,970.335L389.449,968.544L391.821,968.052L394.323,968.052L394.323,976.44L396.647,976.44L396.647,978.258L389.51,978.258L389.51,976.44" style="fill:white;fill-rule:nonzero;"/>
                <path d="M401.64,976.32L406.131,976.32L406.131,978.255L398.714,978.255L398.714,976.32L402.44,973.032C402.772,972.731 403.019,972.437 403.178,972.15C403.338,971.863 403.417,971.564 403.417,971.255C403.417,970.776 403.256,970.391 402.932,970.099C402.613,969.808 402.187,969.662 401.654,969.662C401.244,969.662 400.795,969.751 400.307,969.928C399.819,970.102 399.298,970.361 398.742,970.708L398.742,968.465C399.334,968.27 399.92,968.121 400.498,968.021C401.077,967.916 401.645,967.864 402.201,967.864C403.422,967.864 404.37,968.133 405.044,968.671C405.723,969.208 406.063,969.958 406.063,970.92C406.063,971.476 405.919,971.995 405.632,972.478C405.345,972.957 404.741,973.599 403.821,974.406L401.64,976.32" style="fill:white;fill-rule:nonzero;"/>
                <path d="M413.78,973.15C413.78,971.874 413.659,970.976 413.418,970.457C413.181,969.933 412.78,969.67 412.215,969.67C411.649,969.67 411.246,969.933 411.005,970.457C410.763,970.976 410.642,971.874 410.642,973.15C410.642,974.44 410.763,975.349 411.005,975.877C411.246,976.406 411.649,976.67 412.215,976.67C412.775,976.67 413.176,976.406 413.418,975.877C413.659,975.349 413.78,974.44 413.78,973.15M416.412,973.17C416.412,974.861 416.047,976.167 415.318,977.088C414.589,978.004 413.554,978.462 412.215,978.462C410.87,978.462 409.833,978.003 409.104,977.088C408.375,976.167 408.01,974.861 408.01,973.17C408.01,971.475 408.375,970.17 409.104,969.253C409.833,968.333 410.87,967.873 412.215,967.873C413.554,967.873 414.589,968.333 415.318,969.253C416.047,970.17 416.412,971.475 416.412,973.17" style="fill:white;fill-rule:nonzero;"/>
                <path d="M360.31,952.93L362.634,952.93L362.634,946.333L360.249,946.825L360.249,945.034L362.621,944.542L365.123,944.542L365.123,952.93L367.447,952.93L367.447,954.748L360.31,954.748L360.31,952.93" style="fill:white;fill-rule:nonzero;"/>
                <path d="M373.56,946.71L370.675,950.983L373.56,950.983L373.56,946.71M373.123,944.543L376.048,944.543L376.048,950.982L377.504,950.982L377.504,952.89L376.048,952.89L376.048,954.749L373.56,954.749L373.56,952.89L369.035,952.89L369.035,950.634L373.123,944.543" style="fill:white;fill-rule:nonzero;"/>
                <path d="M384.58,949.64C384.58,948.364 384.459,947.466 384.218,946.947C383.981,946.423 383.58,946.16 383.015,946.16C382.449,946.16 382.046,946.423 381.805,946.947C381.563,947.466 381.442,948.364 381.442,949.64C381.442,950.93 381.563,951.839 381.805,952.367C382.046,952.896 382.449,953.16 383.015,953.16C383.575,953.16 383.976,952.896 384.218,952.367C384.459,951.839 384.58,950.93 384.58,949.64M387.212,949.66C387.212,951.351 386.847,952.657 386.118,953.578C385.389,954.494 384.354,954.952 383.015,954.952C381.67,954.952 380.633,954.493 379.904,953.578C379.175,952.657 378.81,951.351 378.81,949.66C378.81,947.965 379.175,946.66 379.904,945.743C380.633,944.823 381.67,944.363 383.015,944.363C384.354,944.363 385.389,944.823 386.118,945.743C386.847,946.66 387.212,947.965 387.212,949.66" style="fill:white;fill-rule:nonzero;"/>
                <path d="M349.86,927.71L352.184,927.71L352.184,921.113L349.799,921.605L349.799,919.814L352.171,919.322L354.673,919.322L354.673,927.71L356.997,927.71L356.997,929.528L349.86,929.528L349.86,927.71" style="fill:white;fill-rule:nonzero;"/>
                <path d="M363.02,924.49C362.56,924.49 362.213,924.64 361.981,924.941C361.753,925.237 361.639,925.684 361.639,926.281C361.639,926.878 361.753,927.327 361.981,927.628C362.213,927.924 362.56,928.072 363.02,928.072C363.485,928.072 363.831,927.924 364.059,927.628C364.292,927.327 364.408,926.878 364.408,926.281C364.408,925.684 364.292,925.237 364.059,924.941C363.831,924.64 363.485,924.49 363.02,924.49M366.274,919.589L366.274,921.475C365.841,921.27 365.433,921.12 365.05,921.024C364.667,920.924 364.294,920.874 363.929,920.874C363.145,920.874 362.535,921.093 362.097,921.53C361.66,921.963 361.404,922.608 361.332,923.465C361.632,923.241 361.958,923.075 362.309,922.966C362.66,922.852 363.043,922.795 363.458,922.795C364.501,922.795 365.342,923.1 365.98,923.711C366.623,924.321 366.944,925.121 366.944,926.11C366.944,927.204 366.586,928.081 365.871,928.742C365.155,929.398 364.196,929.726 362.993,929.726C361.667,929.726 360.639,929.28 359.91,928.386C359.185,927.489 358.823,926.217 358.823,924.572C358.823,922.886 359.247,921.562 360.094,920.6C360.947,919.634 362.113,919.151 363.594,919.151C364.064,919.151 364.52,919.188 364.962,919.261C365.404,919.333 365.841,919.443 366.274,919.589" style="fill:white;fill-rule:nonzero;"/>
                <path d="M374.13,924.42C374.13,923.144 374.009,922.246 373.768,921.727C373.531,921.203 373.13,920.94 372.565,920.94C371.999,920.94 371.596,921.203 371.355,921.727C371.113,922.246 370.992,923.144 370.992,924.42C370.992,925.71 371.113,926.619 371.355,927.147C371.596,927.676 371.999,927.94 372.565,927.94C373.125,927.94 373.526,927.676 373.768,927.147C374.009,926.619 374.13,925.71 374.13,924.42M376.762,924.44C376.762,926.131 376.397,927.437 375.668,928.357C374.939,929.274 373.904,929.732 372.565,929.732C371.22,929.732 370.183,929.273 369.454,928.357C368.725,927.437 368.36,926.131 368.36,924.44C368.36,922.745 368.725,921.439 369.454,920.523C370.183,919.603 371.22,919.143 372.565,919.143C373.904,919.143 374.939,919.603 375.668,920.523C376.397,921.44 376.762,922.745 376.762,924.44" style="fill:white;fill-rule:nonzero;"/>
                <path d="M352.4,904.27L354.724,904.27L354.724,897.673L352.338,898.165L352.338,896.374L354.71,895.882L357.212,895.882L357.212,904.27L359.537,904.27L359.537,906.088L352.4,906.088L352.4,904.27" style="fill:white;fill-rule:nonzero;"/>
                <path d="M365.37,901.52C364.878,901.52 364.5,901.654 364.235,901.923C363.971,902.192 363.839,902.577 363.839,903.079C363.839,903.58 363.971,903.965 364.235,904.234C364.5,904.498 364.878,904.63 365.37,904.63C365.858,904.63 366.231,904.498 366.491,904.234C366.751,903.965 366.881,903.58 366.881,903.079C366.881,902.573 366.751,902.188 366.491,901.923C366.231,901.654 365.858,901.52 365.37,901.52M363.449,900.652C362.829,900.465 362.362,900.178 362.048,899.791C361.733,899.403 361.576,898.92 361.576,898.341C361.576,897.48 361.897,896.824 362.54,896.373C363.182,895.921 364.126,895.696 365.37,895.696C366.605,895.696 367.544,895.921 368.186,896.373C368.829,896.819 369.15,897.475 369.15,898.341C369.15,898.92 368.991,899.403 368.672,899.791C368.357,900.178 367.89,900.465 367.27,900.652C367.963,900.843 368.485,901.155 368.836,901.588C369.191,902.017 369.369,902.559 369.369,903.215C369.369,904.227 369.032,904.993 368.357,905.512C367.687,906.027 366.692,906.285 365.37,906.285C364.044,906.285 363.041,906.027 362.362,905.512C361.688,904.993 361.35,904.227 361.35,903.215C361.35,902.559 361.526,902.017 361.877,901.588C362.232,901.155 362.756,900.843 363.449,900.652M364.064,898.608C364.064,899.013 364.176,899.326 364.399,899.544C364.627,899.763 364.951,899.872 365.37,899.872C365.78,899.872 366.097,899.763 366.32,899.544C366.544,899.326 366.655,899.013 366.655,898.608C366.655,898.202 366.544,897.892 366.32,897.678C366.097,897.459 365.78,897.35 365.37,897.35C364.951,897.35 364.627,897.459 364.399,897.678C364.176,897.897 364.064,898.207 364.064,898.608" style="fill:white;fill-rule:nonzero;"/>
                <path d="M376.67,900.98C376.67,899.704 376.549,898.806 376.308,898.287C376.071,897.763 375.67,897.5 375.105,897.5C374.539,897.5 374.136,897.763 373.895,898.287C373.653,898.806 373.532,899.704 373.532,900.98C373.532,902.27 373.653,903.179 373.895,903.708C374.136,904.236 374.539,904.5 375.105,904.5C375.665,904.5 376.066,904.236 376.308,903.708C376.549,903.179 376.67,902.27 376.67,900.98M379.302,901.001C379.302,902.691 378.937,903.997 378.208,904.918C377.479,905.834 376.444,906.292 375.105,906.292C373.76,906.292 372.723,905.833 371.994,904.918C371.265,903.997 370.9,902.691 370.9,901.001C370.9,899.305 371.265,898 371.994,897.083C372.723,896.163 373.76,895.703 375.105,895.703C376.444,895.703 377.479,896.163 378.208,897.083C378.937,898 379.302,899.305 379.302,901.001" style="fill:white;fill-rule:nonzero;"/>
                <path d="M366.32,883.45L370.811,883.45L370.811,885.385L363.394,885.385L363.394,883.45L367.12,880.162C367.452,879.861 367.699,879.567 367.858,879.28C368.018,878.993 368.097,878.694 368.097,878.385C368.097,877.906 367.936,877.521 367.612,877.229C367.293,876.938 366.867,876.792 366.334,876.792C365.924,876.792 365.475,876.881 364.987,877.058C364.499,877.232 363.978,877.491 363.422,877.838L363.422,875.595C364.014,875.4 364.6,875.251 365.178,875.151C365.757,875.046 366.325,874.994 366.881,874.994C368.102,874.994 369.05,875.263 369.724,875.801C370.403,876.338 370.743,877.088 370.743,878.05C370.743,878.606 370.599,879.125 370.312,879.608C370.025,880.087 369.421,880.729 368.501,881.536L366.32,883.45" style="fill:white;fill-rule:nonzero;"/>
                <path d="M378.46,880.27C378.46,878.994 378.339,878.096 378.098,877.577C377.861,877.053 377.46,876.79 376.895,876.79C376.329,876.79 375.926,877.053 375.685,877.577C375.443,878.096 375.322,878.994 375.322,880.27C375.322,881.56 375.443,882.469 375.685,882.997C375.926,883.526 376.329,883.79 376.895,883.79C377.455,883.79 377.856,883.526 378.098,882.997C378.339,882.469 378.46,881.56 378.46,880.27M381.092,880.29C381.092,881.981 380.727,883.287 379.998,884.208C379.269,885.124 378.234,885.582 376.895,885.582C375.55,885.582 374.513,885.124 373.784,884.208C373.055,883.287 372.69,881.981 372.69,880.29C372.69,878.595 373.055,877.29 373.784,876.373C374.513,875.453 375.55,874.993 376.895,874.993C378.234,874.993 379.269,875.453 379.998,876.373C380.727,877.29 381.092,878.595 381.092,880.29" style="fill:white;fill-rule:nonzero;"/>
                <path d="M388.19,880.27C388.19,878.994 388.069,878.096 387.828,877.577C387.591,877.053 387.19,876.79 386.625,876.79C386.059,876.79 385.656,877.053 385.415,877.577C385.173,878.096 385.052,878.994 385.052,880.27C385.052,881.56 385.173,882.469 385.415,882.997C385.656,883.526 386.059,883.79 386.625,883.79C387.185,883.79 387.586,883.526 387.828,882.997C388.069,882.469 388.19,881.56 388.19,880.27M390.822,880.29C390.822,881.981 390.457,883.287 389.728,884.208C388.999,885.124 387.964,885.582 386.625,885.582C385.28,885.582 384.243,885.124 383.514,884.208C382.785,883.287 382.42,881.981 382.42,880.29C382.42,878.595 382.785,877.29 383.514,876.373C384.243,875.453 385.28,874.993 386.625,874.993C387.964,874.993 388.999,875.453 389.728,876.373C390.457,877.29 390.822,878.595 390.822,880.29" style="fill:white;fill-rule:nonzero;"/>
            </g>
            <g transform="matrix(1,0,0,1,-674.61,-6.6406)">
                <path d="M455.81,861.57L449.935,869.664C482.018,892.974 491.312,936.753 471.497,971.104L480.153,976.104C502.545,937.32 492.04,887.896 455.809,861.574L455.81,861.57Z" style="fill:white;fill-rule:nonzero;"/>
                <path d="M459.19,877.57L452.096,884.633C452.101,884.638 452.091,884.658 452.096,884.664C478.44,911.026 478.451,953.746 452.096,980.102C430.493,1001.71 397.085,1006.1 370.627,990.821L365.627,999.477C396.005,1017.01 434.386,1011.97 459.189,987.165C489.455,956.899 489.455,907.837 459.189,877.575L459.19,877.57Z" style="fill:rgb(0,195,0);fill-rule:nonzero;"/>
                <path d="M337.81,943.63L327.966,945.286C331.818,968.06 345.619,987.925 365.622,999.474L370.622,990.818C353.2,980.759 341.164,963.466 337.81,943.63L337.81,943.63Z" style="fill:rgb(240,240,0);fill-rule:nonzero;"/>
            </g>
            <g transform="matrix(-0.16677,-0.986,0.986,-0.16677,0,0)">
                <rect x="-868.69" y="-513.33" width="2" height="25" style="fill:rgb(255,0,0);"/>
            </g>
            <g>
                <g transform="matrix(-0.34202,0.93969,-0.93969,-0.34202,0,0)">
                    <rect x="961.32" y="-155.18" width="2" height="25" style="fill:white;"/>
                </g>
                <g transform="matrix(-0.64279,0.76604,-0.76604,-0.64279,0,0)">
                    <rect x="881.85" y="-480.53" width="2" height="25" style="fill:white;"/>
                </g>
                <g transform="matrix(-0.86603,0.5,-0.5,-0.86603,0,0)">
                    <rect x="695.89" y="-759.08" width="2" height="25" style="fill:white;"/>
                </g>
                <g transform="matrix(-0.98481,0.17365,-0.17365,-0.98481,0,0)">
                    <rect x="425.88" y="-957.23" width="2" height="25" style="fill:white;"/>
                </g>
                <g transform="matrix(-0.98481,-0.17365,0.17365,-0.98481,0,0)">
                    <rect x="104.38" y="-1051.1" width="2" height="25" style="fill:white;"/>
                </g>
                <g transform="matrix(-0.86603,-0.5,0.5,-0.86603,0,0)">
                    <rect x="-229.83" y="-1029.3" width="2" height="25" style="fill:white;"/>
                </g>
                <g transform="matrix(-0.17365,0.98481,-0.98481,-0.17365,0,0)">
                    <rect x="958.08" y="12.879" width="1" height="20" style="fill:white;"/>
                </g>
                <g transform="matrix(-0.5,0.86603,-0.86603,-0.5,0,0)">
                    <rect x="936.32" y="-321.33" width="1" height="20" style="fill:white;"/>
                </g>
                <g transform="matrix(-0.76604,0.64279,-0.64279,-0.76604,0,0)">
                    <rect x="801.55" y="-627.94" width="1" height="20" style="fill:white;"/>
                </g>
                <g transform="matrix(-0.93969,0.34202,-0.34202,-0.93969,0,0)">
                    <rect x="570.05" y="-869.97" width="1" height="20" style="fill:white;"/>
                </g>
                <g transform="matrix(-1,0,0,-1,0,0)">
                    <rect x="269.73" y="-1018.2" width="1" height="20" style="fill:white;"/>
                </g>
                <g transform="matrix(-0.93969,-0.34202,0.34202,-0.93969,0,0)">
                    <rect x="-63.178" y="-1054.8" width="1" height="20" style="fill:white;"/>
                </g>
                <g transform="matrix(-0.66913,-0.74314,0.74314,-0.66913,0,0)">
                    <rect x="-508.12" y="-912.75" width="2" height="25" style="fill:white;"/>
                </g>
                <g transform="matrix(-0.40674,-0.91355,0.91355,-0.40674,0,0)">
                    <rect x="-736.77" y="-715.9" width="2" height="25" style="fill:white;"/>
                </g>
                <g transform="matrix(-0.10453,-0.99452,0.99452,-0.10453,0,0)">
                    <rect x="-893.4" y="-458.02" width="2" height="25" style="fill:white;"/>
                </g>
                <g transform="matrix(-0.77715,-0.62932,0.62932,-0.77715,0,0)">
                    <rect x="-373.06" y="-981.98" width="1" height="20" style="fill:white;"/>
                </g>
                <g transform="matrix(-0.54464,-0.83867,0.83867,-0.54464,0,0)">
                    <rect x="-629.7" y="-823.32" width="1" height="20" style="fill:white;"/>
                </g>
                <g transform="matrix(-0.25882,-0.96593,0.96593,-0.25882,0,0)">
                    <rect x="-824.74" y="-593.12" width="1" height="20" style="fill:white;"/>
                </g>
                <g transform="matrix(0.10453,-0.99452,0.99452,0.10453,0,0)">
                    <rect x="-949.9" y="-264.49" width="2" height="25" style="fill:white;"/>
                </g>
                <g transform="matrix(0.30902,-0.95106,0.95106,0.30902,0,0)">
                    <rect x="-964.92" y="-63.444" width="2" height="25" style="fill:white;"/>
                </g>
                <g transform="matrix(0.5,-0.86603,0.86603,0.5,0,0)">
                    <rect x="-937.82" y="136.33" width="2" height="25" style="fill:white;"/>
                </g>
                <g transform="matrix(0.66913,-0.74314,0.74314,0.66913,0,0)">
                    <rect x="-869.77" y="326.11" width="2" height="25" style="fill:white;"/>
                </g>
                <g transform="matrix(-3.82857e-16,-1,1,-3.82857e-16,0,0)">
                    <rect x="-926.22" y="-362.73" width="1" height="20" style="fill:white;"/>
                </g>
                <g transform="matrix(0.20791,-0.97815,0.97815,0.20791,0,0)">
                    <rect x="-962.18" y="-164.36" width="1" height="20" style="fill:white;"/>
                </g>
                <g transform="matrix(0.40674,-0.91355,0.91355,0.40674,0,0)">
                    <rect x="-956.1" y="37.154" width="1" height="20" style="fill:white;"/>
                </g>
                <g transform="matrix(0.58779,-0.80902,0.80902,0.58779,0,0)">
                    <rect x="-908.26" y="233" width="1" height="20" style="fill:white;"/>
                </g>
                <g transform="matrix(0.80902,0.58779,-0.58779,0.80902,0,0)">
                    <rect x="324.5" y="815.26" width="2" height="25" style="fill:white;"/>
                </g>
                <g transform="matrix(0.70711,0.70711,-0.70711,0.70711,0,0)">
                    <rect x="463" y="753.17" width="1" height="20" style="fill:white;"/>
                </g>
                <g transform="matrix(0.45399,0.89101,-0.89101,0.45399,0,0)">
                    <rect x="701.64" y="568.55" width="1" height="20" style="fill:white;"/>
                </g>
                <g transform="matrix(0.15643,0.98769,-0.98769,0.15643,0,0)">
                    <rect x="871.55" y="319.22" width="1" height="20" style="fill:white;"/>
                </g>
                <g transform="matrix(0.58779,0.80902,-0.80902,0.58779,0,0)">
                    <rect x="589.08" y="670.25" width="2" height="25" style="fill:white;"/>
                </g>
                <g transform="matrix(0.30902,0.95106,-0.95106,0.30902,0,0)">
                    <rect x="795.91" y="450.57" width="2" height="25" style="fill:white;"/>
                </g>
                <g transform="matrix(-3.82857e-16,1,-1,-3.82857e-16,0,0)">
                    <rect x="924.72" y="177.73" width="2" height="25" style="fill:white;"/>
                </g>
            </g>
        </g>
        <g id="Needle" transform="matrix(0.366231,0,0,0.366231,-474.981,-299.137)">
            <g transform="matrix(0.240187,0,0,0.240187,1319.87,1302.79)">
                <rect x="540" y="182.146" width="48.529" height="724.554" style="fill:none;"/>
            </g>
            <g>
                <g transform="matrix(1,0,0,1,1335.4,500.332)">
                    <path d="M123.07,880.24L121.23,877.059L121.23,849.58L120.004,846.207L118.778,849.58L118.778,876.983L116.938,880.183L116.938,923.166L123.07,923.166L123.07,880.241L123.07,880.24Z" style="fill:white;fill-rule:nonzero;stroke:rgb(50,50,50);stroke-width:0.3px;"/>
                </g>
                <g transform="matrix(-3.82857e-16,1,-1,-3.82857e-16,1335.4,500.332)">
                    <rect x="923.16" y="-123.07" width="9.198" height="6.132" style="fill:rgb(30,30,30);stroke:rgb(50,50,50);stroke-width:0.3px;"/>
                </g>
                <g transform="matrix(1,0,0,1,1335.4,500.332)">
                    <path d="M127.05,969.15C127.05,966.358 125.417,963.95 123.064,962.807L123.064,934.906C123.643,934.214 123.984,933.33 123.984,932.358C123.984,930.156 122.2,928.372 119.998,928.372C117.797,928.372 116.012,930.156 116.012,932.358C116.012,933.33 116.354,934.214 116.932,934.906L116.932,962.807C114.579,963.95 112.946,966.358 112.946,969.15C112.946,973.045 116.104,976.202 119.998,976.202C123.893,976.202 127.05,973.045 127.05,969.15L127.05,969.15Z" style="fill:rgb(30,30,30);fill-rule:nonzero;stroke:rgb(50,50,50);stroke-width:0.3px;"/>
                </g>
            </g>
            <g transform="matrix(0,0.54675,-0.57278,0,1582.68,1311.67)">
                <path d="M222.48,222.22C222.48,222.811 221.978,223.291 221.358,223.291C220.739,223.291 220.237,222.811 220.237,222.22C220.237,221.629 220.739,221.149 221.358,221.149C221.978,221.149 222.48,221.629 222.48,222.22Z" style="fill:rgb(50,50,50);fill-rule:nonzero;"/>
            </g>
        </g>
    </g>
    <defs>
        <radialGradient id="_Radial1" cx="0" cy="0" r="1" gradientUnits="userSpaceOnUse" gradientTransform="matrix(-0.0257577,0.999668,0.999668,0.0257577,-0.213559,0.208127)"><stop offset="0" style="stop-color:rgb(26,26,26);stop-opacity:1"/><stop offset="0.25" style="stop-color:rgb(26,26,26);stop-opacity:1"/><stop offset="1" style="stop-color:black;stop-opacity:1"/></radialGradient>
        <radialGradient id="_Radial2" cx="0" cy="0" r="1" gradientUnits="userSpaceOnUse" gradientTransform="matrix(0,1,1,0,2.98539e-06,-2.98539e-06)"><stop offset="0" style="stop-color:rgb(77,77,77);stop-opacity:1"/><stop offset="0.25" style="stop-color:rgb(77,77,77);stop-opacity:1"/><stop offset="1" style="stop-color:rgb(26,26,26);stop-opacity:1"/></radialGradient>
        <radialGradient id="_Radial3" cx="0" cy="0" r="1" gradientUnits="userSpaceOnUse" gradientTransform="matrix(0,1,1,0,-0.463059,0.463059)"><stop offset="0" style="stop-color:rgb(26,26,26);stop-opacity:1"/><stop offset="0.2" style="stop-color:rgb(26,26,26);stop-opacity:1"/><stop offset="1" style="stop-color:black;stop-opacity:1"/></radialGradient>
    </defs>
</svg>
