<?xml version="1.0" encoding="UTF-8" standalone="no"?>
<!DOCTYPE svg PUBLIC "-//W3C//DTD SVG 1.1//EN" "http://www.w3.org/Graphics/SVG/1.1/DTD/svg11.dtd">
<svg width="100%" height="100%" viewBox="0 0 2160 1620" version="1.1" xmlns="http://www.w3.org/2000/svg" xmlns:xlink="http://www.w3.org/1999/xlink" xml:space="preserve" xmlns:serif="http://www.serif.com/" style="fill-rule:evenodd;clip-rule:evenodd;stroke-linecap:round;stroke-linejoin:round;stroke-miterlimit:1.5;">
    <g transform="matrix(1,0,0,1,-840,-270)">
        <g transform="matrix(0.878994,0,0,0.975864,201.65,34.3611)">
            <rect x="1119.18" y="627.47" width="1671.45" height="627.304" style="fill:none;stroke:rgb(255,113,206);stroke-width:12.03px;"/>
        </g>
        <g id="open---top-white-layer" serif:id="open - top white layer" transform="matrix(0.517776,0,0,0.536426,924.286,346.633)">
            <path d="M1198.52,1363.09C1165.69,1363.09 1135.36,1355.3 1107.53,1339.72C1079.71,1324.15 1057.73,1302.8 1041.59,1275.67C1025.45,1248.55 1017.38,1219.14 1017.38,1187.44L1017.38,1061.76C1017.38,1030.06 1025.45,1000.66 1041.59,973.53C1057.73,946.405 1079.71,925.054 1107.53,909.477C1135.36,893.9 1165.69,886.111 1198.52,886.111C1231.35,886.111 1261.68,893.9 1289.51,909.477C1317.33,925.054 1339.31,946.405 1355.45,973.53C1371.59,1000.66 1379.66,1030.06 1379.66,1061.76L1379.66,1187.44C1379.66,1219.14 1371.59,1248.55 1355.45,1275.67C1339.31,1302.8 1317.33,1324.15 1289.51,1339.72C1261.68,1355.3 1231.35,1363.09 1198.52,1363.09ZM1198.52,1303.47C1219.67,1303.47 1239.14,1298.5 1256.95,1288.56C1274.76,1278.62 1288.81,1265.06 1299.11,1247.87C1309.4,1230.68 1314.55,1211.88 1314.55,1191.47L1314.55,1057.73C1314.55,1037.32 1309.4,1018.52 1299.11,1001.33C1288.81,984.139 1274.76,970.576 1256.95,960.639C1239.14,950.702 1219.67,945.733 1198.52,945.733C1177.37,945.733 1157.9,950.702 1140.09,960.639C1122.28,970.576 1108.23,984.139 1097.93,1001.33C1087.64,1018.52 1082.49,1037.32 1082.49,1057.73L1082.49,1191.47C1082.49,1211.88 1087.64,1230.68 1097.93,1247.87C1108.23,1265.06 1122.28,1278.62 1140.09,1288.56C1157.9,1298.5 1177.37,1303.47 1198.52,1303.47Z" style="fill:rgb(255,113,206);fill-rule:nonzero;"/>
            <path d="M1520.73,1508.12C1517.39,1508.12 1514.6,1507.04 1512.38,1504.89C1510.15,1502.75 1509.04,1500.06 1509.04,1496.84L1509.04,907.865C1509.04,904.642 1510.15,901.957 1512.38,899.808C1514.6,897.66 1517.39,896.585 1520.73,896.585L1559.12,896.585C1562.46,896.585 1565.24,897.66 1567.47,899.808C1569.7,901.957 1570.81,904.642 1570.81,907.865L1570.81,943.316C1586.39,925.054 1605.17,910.954 1627.15,901.017C1649.13,891.08 1672.65,886.111 1697.69,886.111C1729.41,886.111 1758.62,893.631 1785.33,908.671C1812.05,923.711 1833.19,944.122 1848.77,969.905C1864.36,995.687 1872.15,1023.89 1872.15,1054.5L1872.15,1194.7C1872.15,1225.31 1864.36,1253.51 1848.77,1279.3C1833.19,1305.08 1811.91,1325.49 1784.92,1340.53C1757.93,1355.57 1728.57,1363.09 1696.85,1363.09C1674.04,1363.09 1651.92,1359.06 1630.49,1351C1609.07,1342.95 1590.29,1331.67 1574.15,1317.16L1574.15,1496.84C1574.15,1500.06 1573.04,1502.75 1570.81,1504.89C1568.58,1507.04 1565.8,1508.12 1562.46,1508.12L1520.73,1508.12ZM1691.01,1303.47C1712.16,1303.47 1731.63,1298.5 1749.44,1288.56C1767.25,1278.62 1781.3,1265.06 1791.59,1247.87C1801.89,1230.68 1807.04,1211.88 1807.04,1191.47L1807.04,1057.73C1807.04,1037.32 1801.89,1018.52 1791.59,1001.33C1781.3,984.139 1767.25,970.576 1749.44,960.639C1731.63,950.702 1712.16,945.733 1691.01,945.733C1669.86,945.733 1650.25,950.702 1632.16,960.639C1614.08,970.576 1599.88,984.139 1589.59,1001.33C1579.3,1018.52 1574.15,1037.32 1574.15,1057.73L1574.15,1191.47C1574.15,1211.88 1579.3,1230.68 1589.59,1247.87C1599.88,1265.06 1614.08,1278.62 1632.16,1288.56C1650.25,1298.5 1669.86,1303.47 1691.01,1303.47Z" style="fill:rgb(255,113,206);fill-rule:nonzero;"/>
            <path d="M2165.97,1352.62C2133.14,1352.62 2102.81,1344.83 2074.99,1329.25C2047.16,1313.67 2025.18,1292.32 2009.04,1265.2C1992.9,1238.07 1984.83,1208.66 1984.83,1176.97L1984.83,1061.76C1984.83,1030.06 1992.9,1000.66 2009.04,973.53C2025.18,946.405 2047.16,925.054 2074.99,909.477C2102.81,893.9 2133.14,886.111 2165.97,886.111C2198.8,886.111 2229.13,893.9 2256.96,909.477C2284.78,925.054 2306.76,946.405 2322.9,973.53C2339.04,1000.66 2347.11,1030.06 2347.11,1061.76L2347.11,1116.54C2347.11,1124.6 2344.18,1131.45 2338.34,1137.09C2332.5,1142.73 2325.4,1145.55 2317.06,1145.55L2049.94,1145.55L2049.94,1181C2049.94,1201.41 2055.09,1220.21 2065.39,1237.4C2075.68,1254.59 2089.73,1268.15 2107.54,1278.09C2125.35,1288.02 2144.82,1292.99 2165.97,1292.99L2287.01,1292.99C2290.35,1292.99 2293.13,1294.07 2295.35,1296.22C2297.58,1298.36 2298.69,1301.05 2298.69,1304.27L2298.69,1341.34C2298.69,1344.56 2297.58,1347.24 2295.35,1349.39C2293.13,1351.54 2290.35,1352.62 2287.01,1352.62L2165.97,1352.62ZM2282,1087.54L2282,1057.73C2282,1037.32 2276.85,1018.52 2266.55,1001.33C2256.26,984.139 2242.21,970.576 2224.4,960.639C2206.59,950.702 2187.12,945.733 2165.97,945.733C2144.82,945.733 2125.35,950.702 2107.54,960.639C2089.73,970.576 2075.68,984.139 2065.39,1001.33C2055.09,1018.52 2049.94,1037.32 2049.94,1057.73L2049.94,1087.54L2282,1087.54Z" style="fill:rgb(255,113,206);fill-rule:nonzero;"/>
            <path d="M2482.33,1351.81C2478.99,1351.81 2476.21,1350.74 2473.99,1348.59C2471.76,1346.44 2470.65,1343.75 2470.65,1340.53L2470.65,907.865C2470.65,904.642 2471.76,901.957 2473.99,899.808C2476.21,897.66 2478.99,896.585 2482.33,896.585L2524.07,896.585C2527.41,896.585 2530.19,897.66 2532.42,899.808C2534.64,901.957 2535.76,904.642 2535.76,907.865L2535.76,952.179C2550.22,930.156 2569.01,913.505 2592.1,902.225C2615.19,890.945 2641.21,885.305 2670.15,885.305C2717.45,885.305 2755.71,899.271 2784.92,927.202C2814.14,955.133 2828.74,991.927 2828.74,1037.58L2828.74,1340.53C2828.74,1343.75 2827.63,1346.44 2825.41,1348.59C2823.18,1350.74 2820.4,1351.81 2817.06,1351.81L2775.32,1351.81C2771.98,1351.81 2769.2,1350.74 2766.97,1348.59C2764.75,1346.44 2763.64,1343.75 2763.64,1340.53L2763.64,1049.67C2763.64,1015.29 2754.32,989.107 2735.67,971.113C2717.03,953.119 2691.85,944.122 2660.13,944.122C2622.85,944.122 2592.8,955.939 2569.98,979.573C2547.16,1003.21 2535.76,1035.7 2535.76,1077.06L2535.76,1340.53C2535.76,1343.75 2534.64,1346.44 2532.42,1348.59C2530.19,1350.74 2527.41,1351.81 2524.07,1351.81L2482.33,1351.81Z" style="fill:rgb(255,113,206);fill-rule:nonzero;"/>
        </g>
    </g>
    <g id="Studios---blue-layer" serif:id="Studios - blue layer" transform="matrix(1.16417,0,0,0.852336,-1279.15,-207.378)">
        <path d="M1483.13,1779.48C1476.68,1779.48 1470.37,1778.33 1464.19,1776.03C1458.02,1773.73 1452.68,1770.38 1448.19,1765.97C1447.63,1765.59 1447.25,1764.97 1447.04,1764.1C1446.83,1763.24 1446.86,1762.33 1447.14,1761.37L1451.56,1749.3C1452.26,1747.77 1453.18,1747 1454.3,1747C1454.58,1747 1455.14,1747.19 1455.98,1747.57C1465.24,1755.24 1474.57,1759.07 1483.98,1759.07C1491.41,1759.07 1497.27,1756.82 1501.55,1752.32C1505.83,1747.81 1507.97,1741.44 1507.97,1733.2C1507.97,1728.22 1507.02,1724.14 1505.13,1720.98C1503.23,1717.82 1500.74,1715.23 1497.66,1713.22C1494.57,1711.21 1489.73,1708.48 1483.13,1705.03C1474.57,1700.62 1467.84,1696.5 1462.93,1692.66C1458.02,1688.83 1454.16,1683.94 1451.35,1678C1448.55,1672.06 1447.14,1664.49 1447.14,1655.29C1447.14,1640.54 1450.72,1629.32 1457.88,1621.66C1465.03,1613.99 1474.22,1610.16 1485.45,1610.16C1491.34,1610.16 1497.2,1611.31 1503.02,1613.61C1508.85,1615.91 1514.07,1619.16 1518.7,1623.38C1519.27,1623.77 1519.62,1624.44 1519.76,1625.39C1519.9,1626.35 1519.83,1627.22 1519.55,1627.98L1515.34,1639.77C1515.06,1640.92 1514.53,1641.68 1513.76,1642.07C1512.99,1642.45 1512.18,1642.26 1511.34,1641.49C1502.36,1634.21 1493.73,1630.57 1485.45,1630.57C1478.57,1630.57 1473.21,1632.58 1469.35,1636.61C1465.49,1640.63 1463.56,1646.48 1463.56,1654.14C1463.56,1660.08 1464.61,1664.88 1466.72,1668.52C1468.82,1672.16 1471.35,1674.89 1474.29,1676.71C1477.24,1678.53 1481.94,1681.07 1488.39,1684.33C1496.67,1688.35 1503.2,1692.09 1507.97,1695.54C1512.74,1698.99 1516.67,1703.59 1519.76,1709.34C1522.84,1715.09 1524.39,1722.56 1524.39,1731.76C1524.39,1746.52 1520.63,1758.16 1513.13,1766.69C1505.62,1775.22 1495.62,1779.48 1483.13,1779.48Z" style="fill:rgb(113,224,254);fill-opacity:0.8;fill-rule:nonzero;"/>
        <path d="M1664.78,1776.61C1654.67,1776.61 1646.75,1772.44 1640.99,1764.1C1635.24,1755.77 1632.36,1745.27 1632.36,1732.62L1632.36,1634.88L1618.47,1634.88C1617.63,1634.88 1616.93,1634.5 1616.37,1633.73C1615.8,1632.97 1615.52,1632.01 1615.52,1630.86L1615.52,1617.92C1615.52,1616.77 1615.8,1615.81 1616.37,1615.05C1616.93,1614.28 1617.63,1613.89 1618.47,1613.89L1632.36,1613.89L1632.36,1583.71C1632.36,1582.56 1632.64,1581.6 1633.2,1580.84C1633.77,1580.07 1634.47,1579.68 1635.31,1579.68L1645.83,1579.68C1646.67,1579.68 1647.38,1580.07 1647.94,1580.84C1648.5,1581.6 1648.78,1582.56 1648.78,1583.71L1648.78,1613.89L1685.82,1613.89C1686.66,1613.89 1687.37,1614.28 1687.93,1615.05C1688.49,1615.81 1688.77,1616.77 1688.77,1617.92L1688.77,1631.14C1688.77,1632.29 1688.49,1633.25 1687.93,1634.02C1687.37,1634.79 1686.66,1635.17 1685.82,1635.17L1648.78,1635.17L1648.78,1730.04C1648.78,1737.51 1650.43,1743.5 1653.73,1748.01C1657.02,1752.51 1661.34,1754.86 1666.67,1755.05L1685.82,1755.34C1686.66,1755.34 1687.37,1755.72 1687.93,1756.49C1688.49,1757.25 1688.77,1758.21 1688.77,1759.36L1688.77,1772.58C1688.77,1773.73 1688.49,1774.69 1687.93,1775.46C1687.37,1776.23 1686.66,1776.61 1685.82,1776.61L1664.78,1776.61Z" style="fill:rgb(113,224,254);fill-opacity:0.8;fill-rule:nonzero;"/>
        <path d="M1830.84,1780.35C1818.91,1780.35 1809.27,1775.36 1801.9,1765.4C1794.54,1755.43 1790.85,1742.3 1790.85,1726.01L1790.85,1617.92C1790.85,1616.77 1791.13,1615.81 1791.69,1615.05C1792.25,1614.28 1792.96,1613.89 1793.8,1613.89L1804.32,1613.89C1805.16,1613.89 1805.87,1614.28 1806.43,1615.05C1806.99,1615.81 1807.27,1616.77 1807.27,1617.92L1807.27,1721.7C1807.27,1733.77 1809.65,1743.07 1814.42,1749.59C1819.2,1756.1 1825.51,1759.36 1833.37,1759.36C1842.77,1759.36 1850.35,1755.14 1856.1,1746.71C1861.85,1738.28 1864.73,1726.68 1864.73,1711.93L1864.73,1617.92C1864.73,1616.77 1865.01,1615.81 1865.57,1615.05C1866.13,1614.28 1866.83,1613.89 1867.67,1613.89L1878.2,1613.89C1879.04,1613.89 1879.74,1614.28 1880.3,1615.05C1880.87,1615.81 1881.15,1616.77 1881.15,1617.92L1881.15,1772.58C1881.15,1773.73 1880.87,1774.69 1880.3,1775.46C1879.74,1776.23 1879.04,1776.61 1878.2,1776.61L1867.67,1776.61C1866.83,1776.61 1866.13,1776.23 1865.57,1775.46C1865.01,1774.69 1864.73,1773.73 1864.73,1772.58L1864.73,1756.49C1861.08,1764.34 1856.35,1770.29 1850.52,1774.31C1844.7,1778.33 1838.14,1780.35 1830.84,1780.35Z" style="fill:rgb(113,224,254);fill-opacity:0.8;fill-rule:nonzero;"/>
        <path d="M2031.43,1780.35C2023.43,1780.35 2016.06,1777.66 2009.33,1772.3C2002.59,1766.93 1997.26,1759.65 1993.33,1750.45C1989.4,1741.25 1987.44,1731.19 1987.44,1720.26L1987.44,1670.24C1987.44,1659.32 1989.4,1649.26 1993.33,1640.06C1997.26,1630.86 2002.63,1623.57 2009.43,1618.21C2016.24,1612.84 2023.64,1610.16 2031.64,1610.16C2037.39,1610.16 2042.97,1611.6 2048.37,1614.47C2053.77,1617.35 2058.51,1621.37 2062.58,1626.54L2062.58,1562.44C2062.58,1561.29 2062.86,1560.33 2063.42,1559.56C2063.98,1558.79 2064.68,1558.41 2065.52,1558.41L2076.05,1558.41C2076.89,1558.41 2077.59,1558.79 2078.15,1559.56C2078.71,1560.33 2078.99,1561.29 2078.99,1562.44L2078.99,1772.58C2078.99,1773.73 2078.71,1774.69 2078.15,1775.46C2077.59,1776.23 2076.89,1776.61 2076.05,1776.61L2066.37,1776.61C2065.52,1776.61 2064.82,1776.23 2064.26,1775.46C2063.7,1774.69 2063.42,1773.73 2063.42,1772.58L2063.42,1759.93C2059.49,1766.45 2054.76,1771.48 2049.21,1775.03C2043.67,1778.57 2037.74,1780.35 2031.43,1780.35ZM2033.11,1759.07C2038.44,1759.07 2043.39,1757.3 2047.95,1753.75C2052.51,1750.21 2056.09,1745.37 2058.68,1739.24C2061.28,1733.1 2062.58,1726.4 2062.58,1719.11L2062.58,1671.39C2062.58,1664.11 2061.28,1657.4 2058.68,1651.27C2056.09,1645.13 2052.51,1640.3 2047.95,1636.75C2043.39,1633.2 2038.44,1631.43 2033.11,1631.43C2027.78,1631.43 2022.87,1633.2 2018.38,1636.75C2013.89,1640.3 2010.34,1645.13 2007.75,1651.27C2005.15,1657.4 2003.85,1664.11 2003.85,1671.39L2003.85,1719.11C2003.85,1726.4 2005.15,1733.1 2007.75,1739.24C2010.34,1745.37 2013.89,1750.21 2018.38,1753.75C2022.87,1757.3 2027.78,1759.07 2033.11,1759.07Z" style="fill:rgb(113,224,254);fill-opacity:0.8;fill-rule:nonzero;"/>
        <path d="M2209.07,1591.47C2208.23,1591.47 2207.53,1591.09 2206.97,1590.32C2206.4,1589.56 2206.12,1588.6 2206.12,1587.45L2206.12,1562.44C2206.12,1561.29 2206.4,1560.33 2206.97,1559.56C2207.53,1558.79 2208.23,1558.41 2209.07,1558.41L2219.17,1558.41C2220.01,1558.41 2220.72,1558.79 2221.28,1559.56C2221.84,1560.33 2222.12,1561.29 2222.12,1562.44L2222.12,1587.45C2222.12,1588.6 2221.84,1589.56 2221.28,1590.32C2220.72,1591.09 2220.01,1591.47 2219.17,1591.47L2209.07,1591.47ZM2213.49,1776.61C2211.39,1776.61 2209.6,1775.6 2208.12,1773.59C2206.65,1771.58 2205.91,1769.13 2205.91,1766.26L2205.91,1635.17L2184.02,1635.17C2183.18,1635.17 2182.48,1634.79 2181.92,1634.02C2181.36,1633.25 2181.08,1632.29 2181.08,1631.14L2181.08,1617.92C2181.08,1616.77 2181.36,1615.81 2181.92,1615.05C2182.48,1614.28 2183.18,1613.89 2184.02,1613.89L2214.75,1613.89C2216.86,1613.89 2218.65,1614.9 2220.12,1616.91C2221.59,1618.93 2222.33,1621.37 2222.33,1624.24L2222.33,1755.34L2244.01,1755.34C2244.85,1755.34 2245.55,1755.72 2246.11,1756.49C2246.68,1757.25 2246.95,1758.21 2246.95,1759.36L2246.95,1772.58C2246.95,1773.73 2246.68,1774.69 2246.11,1775.46C2245.55,1776.23 2244.85,1776.61 2244.01,1776.61L2213.49,1776.61Z" style="fill:rgb(113,224,254);fill-opacity:0.8;fill-rule:nonzero;"/>
        <path d="M2385.24,1780.35C2376.96,1780.35 2369.31,1777.57 2362.3,1772.01C2355.28,1766.45 2349.74,1758.83 2345.67,1749.15C2341.6,1739.48 2339.57,1728.98 2339.57,1717.68L2339.57,1672.83C2339.57,1661.52 2341.6,1651.03 2345.67,1641.35C2349.74,1631.67 2355.28,1624.05 2362.3,1618.5C2369.31,1612.94 2376.96,1610.16 2385.24,1610.16C2393.52,1610.16 2401.16,1612.94 2408.18,1618.5C2415.2,1624.05 2420.74,1631.67 2424.81,1641.35C2428.88,1651.03 2430.91,1661.52 2430.91,1672.83L2430.91,1717.68C2430.91,1728.98 2428.88,1739.48 2424.81,1749.15C2420.74,1758.83 2415.2,1766.45 2408.18,1772.01C2401.16,1777.57 2393.52,1780.35 2385.24,1780.35ZM2385.24,1759.07C2390.57,1759.07 2395.48,1757.3 2399.97,1753.75C2404.46,1750.21 2408.01,1745.37 2410.6,1739.24C2413.2,1733.1 2414.49,1726.4 2414.49,1719.11L2414.49,1671.39C2414.49,1664.11 2413.2,1657.4 2410.6,1651.27C2408.01,1645.13 2404.46,1640.3 2399.97,1636.75C2395.48,1633.2 2390.57,1631.43 2385.24,1631.43C2379.91,1631.43 2375,1633.2 2370.51,1636.75C2366.01,1640.3 2362.47,1645.13 2359.88,1651.27C2357.28,1657.4 2355.98,1664.11 2355.98,1671.39L2355.98,1719.11C2355.98,1726.4 2357.28,1733.1 2359.88,1739.24C2362.47,1745.37 2366.01,1750.21 2370.51,1753.75C2375,1757.3 2379.91,1759.07 2385.24,1759.07Z" style="fill:rgb(113,224,254);fill-opacity:0.8;fill-rule:nonzero;"/>
        <path d="M2564.78,1779.48C2558.32,1779.48 2552.01,1778.33 2545.83,1776.03C2539.66,1773.73 2534.33,1770.38 2529.84,1765.97C2529.28,1765.59 2528.89,1764.97 2528.68,1764.1C2528.47,1763.24 2528.5,1762.33 2528.78,1761.37L2533.2,1749.3C2533.91,1747.77 2534.82,1747 2535.94,1747C2536.22,1747 2536.78,1747.19 2537.62,1747.57C2546.89,1755.24 2556.22,1759.07 2565.62,1759.07C2573.05,1759.07 2578.91,1756.82 2583.19,1752.32C2587.47,1747.81 2589.61,1741.44 2589.61,1733.2C2589.61,1728.22 2588.66,1724.14 2586.77,1720.98C2584.88,1717.82 2582.39,1715.23 2579.3,1713.22C2576.21,1711.21 2571.37,1708.48 2564.78,1705.03C2556.22,1700.62 2549.48,1696.5 2544.57,1692.66C2539.66,1688.83 2535.8,1683.94 2532.99,1678C2530.19,1672.06 2528.78,1664.49 2528.78,1655.29C2528.78,1640.54 2532.36,1629.32 2539.52,1621.66C2546.68,1613.99 2555.87,1610.16 2567.09,1610.16C2572.99,1610.16 2578.84,1611.31 2584.67,1613.61C2590.49,1615.91 2595.72,1619.16 2600.35,1623.38C2600.91,1623.77 2601.26,1624.44 2601.4,1625.39C2601.54,1626.35 2601.47,1627.22 2601.19,1627.98L2596.98,1639.77C2596.7,1640.92 2596.17,1641.68 2595.4,1642.07C2594.63,1642.45 2593.82,1642.26 2592.98,1641.49C2584,1634.21 2575.37,1630.57 2567.09,1630.57C2560.22,1630.57 2554.85,1632.58 2550.99,1636.61C2547.13,1640.63 2545.2,1646.48 2545.2,1654.14C2545.2,1660.08 2546.25,1664.88 2548.36,1668.52C2550.46,1672.16 2552.99,1674.89 2555.94,1676.71C2558.88,1678.53 2563.58,1681.07 2570.04,1684.33C2578.32,1688.35 2584.84,1692.09 2589.61,1695.54C2594.38,1698.99 2598.31,1703.59 2601.4,1709.34C2604.49,1715.09 2606.03,1722.56 2606.03,1731.76C2606.03,1746.52 2602.28,1758.16 2594.77,1766.69C2587.26,1775.22 2577.26,1779.48 2564.78,1779.48Z" style="fill:rgb(113,224,254);fill-opacity:0.8;fill-rule:nonzero;"/>
    </g>
</svg>
