<?xml version="1.0" encoding="UTF-8" standalone="no"?>
<!DOCTYPE svg PUBLIC "-//W3C//DTD SVG 1.1//EN" "http://www.w3.org/Graphics/SVG/1.1/DTD/svg11.dtd">
<svg width="100%" height="100%" viewBox="0 0 100 100" version="1.1" xmlns="http://www.w3.org/2000/svg" xmlns:xlink="http://www.w3.org/1999/xlink" xml:space="preserve" xmlns:serif="http://www.serif.com/" style="fill-rule:evenodd;clip-rule:evenodd;stroke-linejoin:round;stroke-miterlimit:2;">
    <g id="Layer-1" serif:id="Layer 1" transform="matrix(1,0,0,1,-336.877,-72.8836)">
        <path id="path3334" d="M340.083,108.885C340.083,108.885 363.568,109.18 366.523,104.607C369.478,100.035 372.433,95.804 370.956,77.663C370.639,77.431 386.219,70.722 401.985,77.284C401.985,77.284 400.508,93.545 403.463,100.182C407.895,106.82 408.287,107.852 433.406,108.885C433.406,108.885 438.344,124.372 432.434,139.269C432.434,139.269 424.149,138.384 412.328,140.596C399.03,142.809 401.985,166.408 401.985,168.62C401.985,168.62 388.687,174.815 370.956,168.62C370.956,168.62 373.911,149.003 366.523,142.809C366.523,142.809 365.045,138.826 341.404,139.121C341.404,139.121 335.65,127.764 340.083,108.885Z" style="fill:none;stroke:rgb(218,227,232);stroke-opacity:0.67;stroke-width:2.5px;"/>
    </g>
</svg>
