<?xml version="1.0" encoding="UTF-8" standalone="no"?>
<!DOCTYPE svg PUBLIC "-//W3C//DTD SVG 1.1//EN" "http://www.w3.org/Graphics/SVG/1.1/DTD/svg11.dtd">
<svg width="100%" height="100%" viewBox="0 0 100 80" version="1.1" xmlns="http://www.w3.org/2000/svg" xmlns:xlink="http://www.w3.org/1999/xlink" xml:space="preserve" xmlns:serif="http://www.serif.com/" style="fill-rule:evenodd;clip-rule:evenodd;stroke-linejoin:round;stroke-miterlimit:2;">
    <g id="Layer-2" serif:id="Layer 2" transform="matrix(1,0,0,1,0.439721,1.42862)">
        <g id="g13478" transform="matrix(1,0,0,1,-0.160915,-8.9635)">
            <path id="path12740" d="M46.213,78.559C20.913,78.559 4.044,71.358 4.044,62.571C4.044,58.304 8.648,54.352 16.521,51.494" style="fill:none;stroke:rgb(218,227,232);stroke-opacity:0.67;stroke-width:2.5px;"/>
            <path id="path10907" d="M83.383,51.615C91.186,54.468 95.664,58.326 95.664,62.571L95.664,62.571C95.664,69.86 81.885,75.987 61.216,78.12" style="fill:none;stroke:rgb(218,227,232);stroke-opacity:0.65;stroke-width:2.5px;"/>
            <path id="path983" d="M38.976,20.909C33.715,21.944 22.384,19.705 18.519,22.408C15.239,24.701 16.449,57.376 18.733,60.278C22.146,64.613 77.501,64.943 81.444,60.797C84.349,57.742 83.988,25.014 81.359,22.437C78.637,19.767 67.74,21.754 60.368,20.902C57.22,20.538 58.625,13.657 55.614,12.666C52.493,11.639 47.878,11.607 44.804,12.666C41.592,13.774 42.31,20.253 38.976,20.909L38.976,20.909Z" style="fill:none;stroke:rgb(218,227,232);stroke-opacity:0.65;stroke-width:2.5px;"/>
            <circle id="path5849" cx="50.023" cy="41.539" r="12.531" style="fill:none;stroke:rgb(218,227,232);stroke-opacity:0.65;stroke-width:2.5px;"/>
        </g>
        <g transform="matrix(3.96786e-17,0.648,-0.648,3.96786e-17,74.4034,74.7385)">
            <path d="M-7.937,31.987L-1.79,44.28L-14.083,44.28L-7.937,31.987Z" style="fill:none;stroke:rgb(218,227,232);stroke-opacity:0.67;stroke-width:3.86px;stroke-linecap:round;stroke-miterlimit:1.5;"/>
        </g>
    </g>
</svg>
