<?xml version="1.0" encoding="UTF-8" standalone="no"?>
<!DOCTYPE svg PUBLIC "-//W3C//DTD SVG 1.1//EN" "http://www.w3.org/Graphics/SVG/1.1/DTD/svg11.dtd">
<svg width="100%" height="100%" viewBox="0 0 160 400" version="1.1" xmlns="http://www.w3.org/2000/svg" xmlns:xlink="http://www.w3.org/1999/xlink" xml:space="preserve" xmlns:serif="http://www.serif.com/" style="fill-rule:evenodd;clip-rule:evenodd;stroke-linejoin:round;stroke-miterlimit:2;">
    <g transform="matrix(1.1123e-16,3.63296,-3.50707,4.29498e-16,437.339,91.7318)">
        <g id="Layer-2" serif:id="Layer 2">
            <path d="M-11.292,106.63L-11.292,115.432L-24.365,101.891L-11.292,88.349L-11.292,97.151L70.895,97.151L70.895,88.349L83.968,101.891L70.895,115.432L70.895,106.63L-11.292,106.63ZM72.272,105.205L-12.669,105.205L-12.669,111.991C-12.669,111.991 -22.418,101.891 -22.418,101.891C-22.418,101.891 -12.669,91.791 -12.669,91.791C-12.669,91.791 -12.669,98.577 -12.669,98.577L72.272,98.577L72.272,91.791C72.272,91.791 82.021,101.891 82.021,101.891C82.021,101.891 72.272,111.991 72.272,111.991C72.272,111.991 72.272,105.205 72.272,105.205Z" style="fill:rgb(218,227,232);fill-opacity:0.5;"/>
        </g>
    </g>
</svg>
