<?xml version="1.0" standalone="no"?>
<!DOCTYPE svg PUBLIC "-//W3C//DTD SVG 20010904//EN"
 "http://www.w3.org/TR/2001/REC-SVG-20010904/DTD/svg10.dtd">
<svg version="1.0" xmlns="http://www.w3.org/2000/svg"
 width="266.000000pt" height="266.000000pt" viewBox="0 0 266.000000 266.000000"
 preserveAspectRatio="xMidYMid meet">
<metadata>
Created by potrace 1.14, written by Peter Selinger 2001-2017
</metadata>
<g transform="translate(0.000000,266.000000) scale(0.100000,-0.100000)"
fill="#000000" stroke="none">
<path d="M440 1580 l0 -370 895 0 895 0 0 370 0 370 -895 0 -895 0 0 -370z
m479 135 c38 -19 61 -71 61 -140 0 -97 -40 -145 -122 -145 -38 0 -54 6 -80 29
-30 26 -33 35 -36 100 -3 44 1 83 9 102 24 60 106 86 168 54z m341 -12 c63
-58 57 -227 -10 -263 -30 -16 -96 -12 -111 7 -12 14 -15 8 -19 -53 -5 -62 -7
-69 -27 -72 l-23 -3 0 200 0 201 25 0 c14 0 25 -4 25 -9 0 -6 12 -3 28 5 42
21 78 17 112 -13z m299 14 c34 -17 58 -55 66 -104 l7 -43 -106 0 c-58 0 -106
-4 -106 -9 0 -26 24 -70 45 -81 24 -13 102 -10 138 5 13 5 17 2 17 -14 0 -27
-35 -41 -101 -41 -70 0 -107 22 -131 77 -23 52 -20 119 8 160 35 54 111 77
163 50z m324 2 c38 -17 47 -51 47 -174 0 -108 -1 -115 -20 -115 -18 0 -20 7
-20 88 0 92 -11 150 -32 164 -25 15 -57 8 -77 -18 -18 -23 -21 -41 -21 -130
l0 -104 -25 0 -25 0 0 145 0 145 25 0 c16 0 25 -6 25 -16 0 -13 5 -12 26 5 30
23 61 26 97 10z"/>
<path d="M811 1664 c-12 -15 -21 -41 -22 -58 -3 -99 14 -136 64 -136 57 0 77
30 77 113 0 67 -26 107 -70 107 -19 0 -36 -9 -49 -26z"/>
<path d="M1141 1664 c-24 -31 -29 -123 -8 -164 14 -28 68 -40 92 -20 40 33 43
152 4 191 -27 27 -64 24 -88 -7z"/>
<path d="M1455 1665 c-14 -13 -25 -33 -25 -45 0 -18 6 -20 75 -20 67 0 75 2
75 19 0 10 -9 30 -21 45 -27 34 -71 35 -104 1z"/>
<path d="M1327 1001 l-29 -18 31 -5 c27 -4 31 -2 31 19 0 28 2 27 -33 4z"/>
<path d="M706 1001 c-4 -7 -5 -15 -2 -18 9 -9 19 4 14 18 -4 11 -6 11 -12 0z"/>
<path d="M760 995 c0 -8 7 -15 16 -15 14 0 14 3 4 15 -7 8 -14 15 -16 15 -2 0
-4 -7 -4 -15z"/>
<path d="M1403 925 c0 -38 2 -53 4 -32 2 20 2 52 0 70 -2 17 -4 1 -4 -38z"/>
<path d="M445 940 c-4 -6 9 -17 27 -24 39 -17 39 -17 31 12 -6 23 -46 31 -58
12z"/>
<path d="M701 938 c0 -7 4 -22 9 -33 7 -17 9 -15 9 13 1 17 -3 32 -9 32 -5 0
-10 -6 -9 -12z"/>
<path d="M760 901 c0 -28 5 -53 12 -57 8 -5 9 -2 5 10 -4 9 -1 35 7 56 13 37
12 40 -5 40 -16 0 -19 -8 -19 -49z"/>
<path d="M1296 934 c-17 -45 -2 -94 29 -94 24 0 35 17 35 55 0 38 -11 55 -35
55 -13 0 -26 -7 -29 -16z"/>
<path d="M1584 895 c0 -30 3 -55 8 -55 4 0 8 25 8 55 0 30 -3 55 -7 55 -5 0
-8 -25 -9 -55z"/>
<path d="M1874 936 c-3 -8 -4 -31 -2 -52 2 -32 7 -40 27 -42 13 -2 28 2 32 10
10 15 12 60 3 82 -8 20 -53 21 -60 2z"/>
<path d="M2170 936 c0 -15 37 -32 47 -22 3 3 3 12 0 21 -8 19 -47 20 -47 1z"/>
<path d="M1012 893 c3 -41 6 -48 25 -51 17 -3 26 4 34 24 16 45 4 74 -32 74
-30 0 -30 -1 -27 -47z"/>
<path d="M1640 880 c0 -22 3 -40 8 -40 4 0 6 18 4 40 -2 22 -6 40 -8 40 -2 0
-4 -18 -4 -40z"/>
<path d="M972 890 c0 -14 2 -19 5 -12 2 6 2 18 0 25 -3 6 -5 1 -5 -13z"/>
<path d="M1112 890 c0 -14 2 -19 5 -12 2 6 2 18 0 25 -3 6 -5 1 -5 -13z"/>
<path d="M2163 868 c15 -24 48 -31 54 -12 2 7 -10 17 -28 23 -43 15 -44 14
-26 -11z"/>
<path d="M450 860 c11 -20 31 -26 43 -13 11 10 -13 33 -35 33 -16 0 -17 -3 -8
-20z"/>
</g>
</svg>
